<svg width="37" height="37" viewBox="0 0 37 37" fill="none" xmlns="http://www.w3.org/2000/svg">
<path opacity="0.25" fill-rule="evenodd" clip-rule="evenodd" d="M18.4995 36C28.1645 36 35.9995 28.165 35.9995 18.5C35.9995 8.83502 28.1645 1 18.4995 1C8.83453 1 0.999512 8.83502 0.999512 18.5C0.999512 28.165 8.83453 36 18.4995 36Z" stroke="white" stroke-width="1.5"/>
<path d="M20.0927 14.0208H21.7011C21.8491 14.0208 21.9692 13.9076 21.9692 13.7682V12.2526C21.9692 12.1132 21.8491 12 21.7011 12H20.0927C18.4672 12 17.144 13.2463 17.144 14.7786V16.5468H15.2676C15.1196 16.5468 14.9995 16.6599 14.9995 16.7994V18.3149C14.9995 18.4544 15.1196 18.5675 15.2676 18.5675H17.144V23.8721C17.144 24.0115 17.2641 24.1247 17.4121 24.1247H19.0205C19.1684 24.1247 19.2885 24.0115 19.2885 23.8721V18.5675H21.165C21.2802 18.5675 21.3826 18.4978 21.4196 18.3948L21.9557 16.8792C21.9831 16.8024 21.9692 16.7175 21.9188 16.6513C21.8678 16.5857 21.7874 16.5468 21.7011 16.5468H19.2885V14.7786C19.2885 14.3608 19.6493 14.0208 20.0927 14.0208Z" fill="white"/>
</svg>
