<svg width="1920" height="121" viewBox="0 0 1920 121" fill="none" xmlns="http://www.w3.org/2000/svg">
<path d="M429.145 114.836C428.98 114.973 428.781 115.062 428.568 115.095C428.356 115.128 428.139 115.102 427.94 115.021C427.471 114.817 427.471 114.418 427.471 114.034C427.471 112.179 427.471 110.324 427.471 108.468C427.471 106.953 426.718 106.081 425.36 105.994C423.651 105.886 422.356 106.754 422.061 108.18C421.857 109.172 421.967 110.171 421.948 111.165C421.927 112.202 421.948 113.241 421.948 114.278C421.948 114.782 421.713 115.089 421.115 115.098C420.517 115.108 420.243 114.782 420.241 114.296C420.231 111.265 420.231 108.232 420.241 105.199C420.241 104.73 420.522 104.432 421.071 104.43C421.62 104.428 421.955 104.702 421.948 105.22V105.619C422.168 105.722 422.227 105.574 422.311 105.502C424.544 103.59 427.94 104.231 429.028 106.773C429.068 106.867 429.115 106.958 429.159 107.05L429.145 114.836Z" fill="#86371C"/>
<path d="M401.212 119.268C400.771 118.9 400.757 118.473 400.961 118.004C401.373 117.066 401.758 116.095 402.19 115.15C402.283 114.963 402.333 114.758 402.336 114.549C402.339 114.34 402.294 114.133 402.206 113.944C401.146 111.418 400.112 108.883 399.073 106.35C398.966 106.112 398.888 105.861 398.838 105.605C398.815 105.524 398.808 105.439 398.818 105.355C398.828 105.271 398.855 105.191 398.896 105.117C398.938 105.044 398.994 104.98 399.061 104.929C399.128 104.877 399.205 104.84 399.286 104.819C399.474 104.744 399.682 104.731 399.877 104.784C400.073 104.836 400.247 104.951 400.372 105.11C400.517 105.307 400.629 105.528 400.703 105.762C401.439 107.752 402.172 109.744 402.9 111.737C402.975 111.944 403.062 112.145 403.2 112.488C403.615 111.47 403.979 110.579 404.34 109.688C404.875 108.372 405.405 107.056 405.939 105.743C406.002 105.571 406.081 105.404 406.174 105.246C406.289 105.04 406.474 104.883 406.696 104.804C406.917 104.725 407.16 104.728 407.379 104.814C407.926 104.993 407.963 105.396 407.799 105.811C407.208 107.298 406.603 108.78 405.998 110.267C404.924 112.894 403.843 115.518 402.776 118.149C402.63 118.583 402.372 118.969 402.028 119.27L401.212 119.268Z" fill="#86371C"/>
<path d="M353.571 105.874C353.571 104.77 353.571 103.794 353.571 102.826C353.574 102.506 353.603 102.186 353.658 101.871C353.723 101.505 354.019 101.32 354.424 101.306C354.83 101.292 355.18 101.465 355.285 101.852C355.332 102.046 355.355 102.244 355.353 102.443C355.353 106.394 355.353 110.346 355.353 114.298C355.359 114.478 355.34 114.658 355.299 114.833C355.203 115.199 354.905 115.349 354.495 115.351C354.084 115.354 353.775 115.236 353.658 114.868C353.599 114.678 353.564 114.484 353.503 114.235C353.178 114.471 352.84 114.69 352.492 114.889C350.616 115.844 348.008 115.384 346.685 113.881C344.706 111.627 344.877 107.758 347.049 105.642C347.793 104.939 348.755 104.512 349.776 104.432C350.797 104.352 351.814 104.625 352.658 105.204C352.926 105.382 353.179 105.584 353.571 105.874ZM353.669 109.939C353.715 109.368 353.637 108.795 353.438 108.259C353.24 107.722 352.928 107.235 352.522 106.831C351.204 105.523 349.005 105.659 348.008 107.157C346.852 108.876 346.791 110.701 347.811 112.471C348.831 114.242 351.472 114.364 352.79 112.706C353.413 111.923 353.726 110.938 353.669 109.939Z" fill="#86371C"/>
<path d="M384.961 114.214C383.789 115.204 382.398 115.41 380.918 115.281C379.321 115.143 378.163 114.373 377.532 113.135C376.291 110.708 376.427 108.29 378.156 106.074C379.753 104.026 382.611 103.836 384.678 105.53C384.743 105.584 384.814 105.633 384.912 105.71C385.116 105.495 385.008 105.241 385.076 105.025C385.116 104.821 385.232 104.64 385.4 104.519C385.569 104.398 385.778 104.346 385.984 104.373C386.081 104.365 386.179 104.377 386.272 104.408C386.364 104.44 386.449 104.491 386.521 104.557C386.593 104.623 386.65 104.703 386.69 104.793C386.729 104.883 386.749 104.979 386.748 105.077C386.782 105.294 386.804 105.512 386.814 105.731C386.814 108.567 386.814 111.402 386.814 114.235C386.814 115.068 386.392 115.387 385.641 115.213C385.083 115.084 385.149 114.638 384.961 114.214ZM378.646 110.018C378.578 111.009 378.843 111.994 379.398 112.816C379.643 113.171 379.965 113.466 380.339 113.679C380.714 113.892 381.132 114.017 381.562 114.045C381.992 114.074 382.423 114.005 382.822 113.843C383.222 113.681 383.579 113.431 383.868 113.112C384.455 112.503 384.834 111.724 384.952 110.886C385.151 109.425 385.048 107.999 383.873 106.824C383.565 106.508 383.19 106.265 382.775 106.114C382.36 105.964 381.917 105.909 381.478 105.954C381.039 105.999 380.615 106.143 380.24 106.375C379.864 106.607 379.546 106.921 379.309 107.293C378.812 108.111 378.58 109.063 378.646 110.018Z" fill="#86371C"/>
<path d="M362.776 110.645C361.728 110.645 360.665 110.661 359.629 110.645C359.038 110.631 358.855 110.837 358.96 111.33C359.429 113.581 362.201 114.646 364.399 113.414C364.784 113.201 365.142 112.945 365.513 112.711C365.926 112.453 366.348 112.354 366.73 112.739C367.112 113.124 366.965 113.461 366.627 113.801C365.384 115.023 363.761 115.443 361.988 115.281C359.106 115.033 357.22 113.246 356.967 110.626C356.805 108.928 357.105 107.322 358.374 105.936C359.699 104.512 361.423 104.116 363.407 104.503C365.283 104.873 366.364 105.99 366.84 107.582C367.032 108.279 367.082 109.007 366.986 109.723C366.908 110.441 366.678 110.617 365.848 110.626C364.821 110.626 363.796 110.626 362.769 110.626L362.776 110.645ZM362.028 109.066C362.94 109.066 363.85 109.066 364.762 109.066C365.187 109.066 365.318 108.905 365.288 108.55C365.149 106.972 363.81 105.832 362.087 105.846C360.363 105.861 359.038 107.019 358.909 108.588C358.876 108.975 359.021 109.078 359.432 109.071C360.292 109.057 361.158 109.081 362.023 109.066H362.028Z" fill="#86371C"/>
<path d="M343.873 110.018C343.826 111.353 343.472 112.647 342.466 113.771C340.576 115.851 336.779 115.881 334.961 113.747C333.144 111.613 333.071 109.291 334.258 106.946C335.095 105.286 336.647 104.385 338.751 104.409C340.902 104.434 342.318 105.478 343.207 107.122C343.663 108.018 343.891 109.013 343.873 110.018ZM335.475 109.521C335.475 111.053 335.805 112.131 336.479 112.931C336.762 113.271 337.119 113.542 337.522 113.725C337.924 113.908 338.363 113.998 338.806 113.989C339.248 113.979 339.683 113.87 340.077 113.669C340.472 113.469 340.816 113.182 341.084 112.83C342.337 111.189 342.154 108.201 340.707 106.679C340.423 106.376 340.077 106.137 339.692 105.98C339.308 105.823 338.894 105.75 338.479 105.767C338.064 105.784 337.658 105.89 337.287 106.078C336.917 106.266 336.592 106.532 336.333 106.857C335.737 107.615 335.432 108.562 335.475 109.526V109.521Z" fill="#86371C"/>
<path d="M408.433 109.289C408.5 108.095 408.969 106.958 409.762 106.062C411.73 103.799 415.546 103.844 417.45 106.149C419.167 108.229 419.237 111.416 417.614 113.487C415.614 116.034 411.268 115.912 409.455 113.253C408.754 112.225 408.43 111.142 408.433 109.289ZM416.817 110.253C416.817 108.846 416.549 107.908 415.947 107.078C414.64 105.286 412.077 105.328 411.022 107.242C409.966 109.156 410.084 111.133 411.42 112.941C412.495 114.388 414.798 114.348 415.93 112.941C416.549 112.186 416.865 111.228 416.817 110.253Z" fill="#86371C"/>
<path d="M390.179 105.684C390.712 105.156 391.37 104.772 392.092 104.567C392.814 104.361 393.576 104.343 394.307 104.512C395.965 104.835 397.168 106.083 397.283 107.56C397.449 109.692 397.334 111.826 397.355 113.961C397.354 114.181 397.323 114.401 397.262 114.612C397.17 114.95 396.879 115.082 396.502 115.1C396.337 115.123 396.17 115.094 396.023 115.016C395.876 114.939 395.757 114.817 395.683 114.669C395.591 114.424 395.555 114.162 395.578 113.902C395.578 112.087 395.578 110.272 395.578 108.456C395.578 106.901 394.82 106.057 393.387 105.989C391.673 105.907 390.268 106.859 390.172 108.309C390.071 109.859 390.128 111.418 390.106 112.973C390.106 113.47 390.078 113.97 390.036 114.465C389.999 114.896 389.687 115.096 389.208 115.1C388.73 115.105 388.444 114.866 388.364 114.467C388.331 114.27 388.317 114.069 388.324 113.869C388.324 111.119 388.324 108.366 388.324 105.612C388.319 105.412 388.332 105.213 388.364 105.016C388.439 104.624 388.742 104.427 389.175 104.42C389.609 104.413 389.926 104.58 390.024 104.976C390.071 105.171 390.109 105.363 390.179 105.684Z" fill="#86371C"/>
<path d="M373.881 115.342C370.98 115.328 368.888 113.752 368.377 111.235C367.933 109.057 368.377 107.056 370.307 105.468C371.74 104.284 374.15 104.061 375.855 104.922C376.249 105.119 376.559 105.37 376.58 105.799C376.597 106.388 375.94 106.737 375.274 106.503C374.805 106.339 374.397 106.067 373.885 106.017C372.779 105.905 371.831 106.203 371.174 106.993C369.854 108.578 369.669 110.311 370.572 112.084C371.275 113.473 372.682 113.982 374.369 113.592C374.699 113.515 375.025 113.43 375.354 113.344C375.787 113.229 376.196 113.25 376.423 113.632C376.65 114.014 376.496 114.42 376.118 114.704C375.419 115.229 374.561 115.321 373.881 115.342Z" fill="#86371C"/>
<path d="M326.894 109.96C326.838 110.876 327.112 111.783 327.668 112.514C328.461 113.522 329.645 113.921 331.008 113.632C331.407 113.548 331.798 113.44 332.18 113.337C332.563 113.234 332.978 113.243 333.212 113.572C333.447 113.9 333.358 114.313 333.039 114.617C332.665 114.937 332.208 115.143 331.721 115.211C329.16 115.701 326.796 114.742 325.736 112.631C324.528 110.211 324.77 107.873 326.74 105.792C328.088 104.367 330.687 103.968 332.549 104.84C332.767 104.94 332.97 105.07 333.151 105.227C333.466 105.516 333.543 105.863 333.273 106.208C333.148 106.381 332.965 106.504 332.758 106.557C332.55 106.609 332.331 106.587 332.138 106.494C331.669 106.313 331.221 106.041 330.684 105.992C330.1 105.915 329.507 106.004 328.971 106.249C328.436 106.493 327.979 106.882 327.654 107.373C327.112 108.123 326.843 109.036 326.894 109.96Z" fill="#86371C"/>
<path d="M371.918 72C373.972 72.7067 376.001 73.4401 378.247 73.3521C380.692 73.2561 383.146 73.3281 385.594 73.3308C387.176 73.3308 387.832 73.9789 387.848 75.5604C387.861 76.9658 387.869 78.374 387.848 79.7821C387.818 80.0506 387.87 80.3219 387.998 80.56C388.125 80.7982 388.322 80.9919 388.562 81.1156C389.54 81.6998 390.39 82.4754 391.061 83.3958C392.269 85.0413 392.603 86.7642 391.645 88.6844C390.781 90.4152 390.832 90.4392 389.584 88.9857C389.229 88.5724 388.877 88.159 388.504 87.7616C388.373 87.6176 388.197 87.4416 387.97 87.5483C387.744 87.6549 387.837 87.8683 387.837 88.0416C387.837 89.7218 387.837 91.402 387.837 93.0795C387.837 95.0103 387.234 95.5971 385.306 95.5971H368.104C367.899 95.5971 367.694 95.5971 367.491 95.5971C366.291 95.5304 365.624 94.8423 365.624 93.6315C365.624 90.3645 365.608 87.0949 365.624 83.8252C365.624 83.2251 365.563 82.7878 364.824 82.7798C364.677 82.7798 364.472 82.7424 364.443 82.5611C364.413 82.3797 364.597 82.2784 364.728 82.2144C365.528 81.825 365.837 81.1316 365.573 80.3609C365.259 79.4434 365.752 78.6167 365.635 77.7232C365.543 76.7734 365.543 75.8168 365.635 74.867C365.693 73.9655 366.467 73.3548 367.502 73.3415C368.816 73.3228 370.131 73.3415 371.449 73.3415C371.679 73.3803 371.916 73.3554 372.134 73.2695C372.006 72.7734 371.467 72.5281 371.374 72.0187L371.918 72ZM367.603 90.1859C367.262 91.2526 366.803 92.0954 366.507 92.9915C366.024 94.469 366.461 94.9037 367.702 94.893C373.006 94.845 378.311 94.8717 383.615 94.8717C384.25 94.8717 384.885 94.8717 385.519 94.8717C386.053 94.8717 386.319 94.6717 386.319 94.1063C386.333 92.9461 386.346 91.8047 385.786 90.7246C385.466 90.1032 385.298 89.3911 385.007 88.767C384.717 88.143 384.637 87.5643 384.965 86.9482C385.165 86.5775 385.053 86.3241 384.679 86.1161C383.794 85.6065 382.82 85.2682 381.81 85.1187C381.602 85.092 381.348 85.164 381.167 84.8093C382.946 84.5613 384.503 85.3267 386.213 85.6894C385.861 85.324 385.386 85.284 385.034 84.7933C387.458 85.6521 389.661 86.5135 390.8 89.1137C391.333 87.5563 391.6 86.2415 390.8 84.9347C389.988 83.7 388.913 82.66 387.653 81.889C387.309 81.6677 386.989 81.5903 386.962 82.1557C386.944 82.5531 386.696 82.6464 386.375 82.6624C386.12 82.6759 385.865 82.638 385.624 82.5509C385.384 82.4639 385.163 82.3295 384.975 82.1557C385.949 82.1557 385.949 82.1557 386.277 81.2836C386.299 81.1961 386.338 81.1137 386.391 81.0409C386.949 80.4809 386.658 79.9741 386.314 79.4594C385.994 78.9911 385.61 78.57 385.173 78.2086C383.859 77.16 382.397 76.3125 380.834 75.6937C378.38 74.6856 375.82 73.9735 373.315 73.1094C373.225 73.0801 373.11 72.9948 373.006 73.1655C373.39 73.7148 374.004 74.1015 374.404 74.8643L368.896 73.9282C369.515 74.5051 370.182 75.0288 370.889 75.4937C371.507 75.9284 371.507 75.9631 370.913 76.4645C370.238 77.0352 369.558 77.6006 368.888 78.1793C368.718 78.326 368.483 78.446 368.438 78.7127C368.688 78.8114 368.872 78.67 369.072 78.6567C369.227 78.6567 369.408 78.5927 369.504 78.7554C369.6 78.918 369.462 79.0541 369.36 79.1714C369.259 79.2887 369.115 79.4381 368.99 79.5714C368.09 80.5454 367.081 81.4133 365.984 82.1584C366.064 82.3584 366.192 82.3504 366.293 82.3771C367.302 82.6438 367.379 82.6838 366.885 83.5478C366.107 84.908 366.443 86.3481 366.352 87.8363C366.619 87.5696 366.533 87.1936 366.867 87.0015C366.821 88.4657 366.347 89.8472 366.413 91.338C366.925 91.0526 367.072 90.5192 367.608 90.1859H367.603Z" fill="#86371C"/>
<path d="M378.145 82.8225C377.078 82.8065 376.353 81.8491 376.732 80.9557C376.908 80.5396 377.164 80.2703 377.569 80.7423C377.782 80.9903 378.006 80.969 378.297 80.9023C378.807 80.7876 379.364 80.7343 379.673 81.2757C379.905 81.6971 379.457 82.4011 378.873 82.6838C378.645 82.7882 378.396 82.8358 378.145 82.8225Z" fill="#86371C"/>
<path d="M653.508 112.248C653.201 112.057 652.198 111.583 650.507 110.821C649.426 110.347 648.885 109.903 648.885 109.496C648.885 108.58 649.404 108.123 650.44 108.125C651.592 108.148 652.711 108.494 653.66 109.122C653.795 109.207 653.953 109.255 654.115 109.26C654.542 109.26 654.756 109.011 654.756 108.514C654.758 108.386 654.73 108.259 654.674 108.142C654.618 108.026 654.536 107.923 654.434 107.842C653.419 107.067 652.148 106.669 650.853 106.721C649.963 106.683 649.085 106.925 648.353 107.412C647.988 107.678 647.696 108.025 647.504 108.424C647.312 108.824 647.226 109.262 647.252 109.701C647.252 110.587 647.785 111.334 648.85 111.941C649.838 112.378 650.833 112.811 651.836 113.248C652.839 113.685 653.415 114.275 653.415 114.861C653.415 116.004 652.773 116.571 651.494 116.571C650.824 116.564 650.162 116.424 649.55 116.161C649.015 115.976 648.54 115.661 648.17 115.246C648.115 115.158 648.039 115.085 647.948 115.032C647.858 114.978 647.755 114.947 647.649 114.94C647.549 114.944 647.453 114.971 647.367 115.02C647.281 115.069 647.21 115.138 647.159 115.22C647.021 115.4 646.947 115.619 646.949 115.843C646.942 116.062 647.021 116.275 647.171 116.441C648.078 117.451 649.374 117.958 651.059 117.961C652.067 117.994 653.059 117.708 653.881 117.147C654.284 116.862 654.608 116.488 654.824 116.055C655.041 115.623 655.145 115.147 655.126 114.667C655.126 113.767 654.585 112.968 653.504 112.277L653.508 112.248Z" fill="#5B5B5B"/>
<path d="M562.281 107.294H561.279V104.371C561.279 104.179 561.198 103.996 561.054 103.861C560.91 103.725 560.715 103.649 560.511 103.649C560.308 103.649 560.112 103.725 559.969 103.861C559.825 103.996 559.744 104.179 559.744 104.371V107.294H558.702C558.609 107.279 558.513 107.285 558.423 107.311C558.332 107.337 558.25 107.383 558.182 107.445C558.114 107.507 558.063 107.583 558.032 107.667C558.002 107.751 557.993 107.841 558.006 107.929C558.006 108.366 558.252 108.583 558.746 108.583H559.768V117.24C559.752 117.336 559.76 117.434 559.792 117.527C559.824 117.619 559.878 117.704 559.951 117.773C560.023 117.843 560.112 117.895 560.21 117.926C560.308 117.958 560.413 117.967 560.515 117.954C560.621 117.971 560.729 117.964 560.831 117.935C560.933 117.906 561.027 117.854 561.104 117.785C561.182 117.716 561.241 117.63 561.276 117.535C561.312 117.441 561.324 117.339 561.311 117.24V108.583H562.356C562.858 108.583 563.112 108.37 563.112 107.94C563.112 107.51 562.846 107.294 562.317 107.294H562.281Z" fill="#5B5B5B"/>
<path d="M572.009 107.881C571.221 107.243 570.182 106.897 569.109 106.916C568.455 106.899 567.805 107.024 567.219 107.279C566.633 107.535 566.128 107.914 565.749 108.382V104.398C565.749 103.896 565.475 103.649 564.933 103.649C564.391 103.649 564.143 103.904 564.143 104.398V117.242C564.125 117.337 564.134 117.435 564.167 117.527C564.2 117.619 564.257 117.703 564.334 117.772C564.41 117.842 564.504 117.894 564.609 117.926C564.713 117.958 564.824 117.968 564.933 117.956C565.044 117.971 565.156 117.962 565.263 117.932C565.369 117.901 565.465 117.849 565.544 117.78C565.624 117.711 565.683 117.627 565.719 117.534C565.754 117.441 565.764 117.342 565.749 117.245V111.192C565.726 110.786 565.798 110.38 565.96 109.999C566.123 109.619 566.372 109.271 566.692 108.977C566.964 108.741 567.286 108.554 567.641 108.429C567.996 108.303 568.377 108.242 568.759 108.247C569.139 108.241 569.516 108.302 569.868 108.428C570.219 108.553 570.538 108.74 570.805 108.977C571.122 109.272 571.367 109.621 571.525 110.002C571.684 110.382 571.752 110.787 571.727 111.192V117.242C571.709 117.337 571.717 117.434 571.751 117.526C571.784 117.618 571.841 117.702 571.918 117.771C571.995 117.841 572.089 117.893 572.193 117.924C572.297 117.956 572.408 117.965 572.517 117.952C572.627 117.966 572.74 117.957 572.845 117.926C572.951 117.896 573.047 117.844 573.125 117.775C573.204 117.706 573.264 117.622 573.299 117.529C573.334 117.437 573.344 117.338 573.328 117.242V110.593C573.347 110.087 573.239 109.583 573.011 109.118C572.783 108.652 572.441 108.236 572.009 107.9V107.881Z" fill="#5B5B5B"/>
<path d="M584.579 111.51C584.579 110.039 584.133 108.875 583.24 108.017C582.773 107.58 582.205 107.239 581.575 107.016C580.945 106.792 580.268 106.692 579.59 106.722C578.828 106.704 578.072 106.856 577.393 107.164C576.713 107.472 576.132 107.927 575.701 108.485C574.785 109.608 574.314 110.969 574.363 112.354C574.31 113.736 574.789 115.093 575.722 116.201C576.213 116.77 576.849 117.226 577.579 117.532C578.309 117.839 579.111 117.985 579.918 117.961C581.848 117.961 583.323 117.386 584.344 116.238C584.444 116.135 584.498 116.002 584.495 115.866C584.49 115.68 584.404 115.503 584.256 115.371C584.187 115.299 584.101 115.241 584.003 115.201C583.906 115.161 583.801 115.14 583.694 115.141C583.375 115.209 583.085 115.355 582.855 115.561C582.474 115.838 582.069 116.087 581.642 116.305C581.116 116.578 580.519 116.723 579.909 116.725C579.406 116.718 578.91 116.611 578.459 116.413C578.008 116.215 577.612 115.93 577.3 115.58C576.581 114.898 576.175 114.002 576.163 113.069H584.021C584.394 113.069 584.583 112.551 584.583 111.517L584.579 111.51ZM576.188 111.607C576.161 110.627 576.557 109.675 577.296 108.947C577.595 108.663 577.957 108.438 578.361 108.286C578.764 108.134 579.199 108.059 579.637 108.065C580.068 108.057 580.496 108.132 580.892 108.284C581.288 108.436 581.643 108.662 581.932 108.947C582.658 109.678 583.032 110.633 582.972 111.607H576.188Z" fill="#5B5B5B"/>
<path d="M599.726 107.64C598.977 107.026 598.01 106.697 597.016 106.718C596.28 106.699 595.553 106.863 594.907 107.193C594.262 107.524 593.721 108.009 593.34 108.599C592.618 107.348 591.566 106.721 590.184 106.718C589.579 106.716 588.983 106.857 588.45 107.127C587.918 107.397 587.466 107.788 587.137 108.264V107.571C587.137 107.004 586.897 106.718 586.374 106.718C585.851 106.718 585.611 107.008 585.611 107.579V117.221C585.596 117.32 585.606 117.42 585.64 117.515C585.674 117.61 585.73 117.696 585.805 117.766C585.881 117.837 585.972 117.89 586.073 117.921C586.174 117.953 586.281 117.962 586.386 117.948C586.49 117.961 586.596 117.95 586.694 117.918C586.793 117.885 586.883 117.832 586.956 117.761C587.028 117.69 587.083 117.605 587.114 117.511C587.146 117.417 587.153 117.318 587.137 117.221V111.309C587.116 110.89 587.186 110.471 587.344 110.078C587.501 109.686 587.743 109.327 588.054 109.025C588.313 108.78 588.623 108.587 588.964 108.456C589.304 108.326 589.669 108.26 590.038 108.264C590.35 108.258 590.661 108.31 590.952 108.419C591.242 108.527 591.507 108.69 591.729 108.896C591.985 109.149 592.184 109.448 592.314 109.775C592.444 110.102 592.501 110.451 592.484 110.799V117.198C592.468 117.297 592.477 117.397 592.511 117.492C592.544 117.587 592.6 117.673 592.675 117.743C592.75 117.814 592.841 117.867 592.942 117.899C593.042 117.93 593.15 117.939 593.255 117.925C593.358 117.938 593.464 117.929 593.563 117.897C593.662 117.865 593.751 117.811 593.824 117.741C593.897 117.671 593.952 117.585 593.983 117.492C594.014 117.398 594.022 117.299 594.005 117.202V111.34C593.987 110.919 594.061 110.499 594.223 110.106C594.384 109.713 594.631 109.355 594.946 109.056C595.203 108.805 595.511 108.606 595.852 108.471C596.193 108.336 596.56 108.268 596.93 108.271C597.242 108.265 597.551 108.319 597.838 108.431C598.126 108.542 598.386 108.708 598.602 108.919C598.86 109.179 599.06 109.485 599.189 109.819C599.318 110.154 599.373 110.509 599.352 110.864V117.248C599.352 117.724 599.616 117.956 600.164 117.956C600.267 117.971 600.373 117.963 600.473 117.933C600.573 117.903 600.663 117.852 600.738 117.783C600.813 117.714 600.87 117.63 600.904 117.537C600.938 117.444 600.949 117.345 600.935 117.248V110.205C600.952 109.722 600.853 109.242 600.647 108.799C600.441 108.357 600.131 107.963 599.742 107.647L599.726 107.64Z" fill="#5B5B5B"/>
<path d="M612.187 111.51C612.187 110.039 611.74 108.875 610.848 108.017C610.38 107.58 609.812 107.239 609.182 107.016C608.551 106.792 607.874 106.692 607.196 106.722C606.433 106.704 605.677 106.856 604.997 107.164C604.318 107.472 603.736 107.927 603.305 108.485C602.389 109.608 601.918 110.969 601.967 112.354C601.913 113.736 602.393 115.093 603.326 116.201C603.817 116.77 604.454 117.226 605.184 117.532C605.914 117.839 606.716 117.985 607.524 117.961C609.454 117.961 610.93 117.386 611.952 116.238C612.052 116.135 612.106 116.002 612.103 115.866C612.097 115.681 612.013 115.505 611.868 115.371C611.797 115.3 611.71 115.242 611.612 115.202C611.514 115.163 611.408 115.142 611.301 115.141C610.982 115.208 610.691 115.354 610.462 115.561C610.081 115.838 609.675 116.087 609.249 116.305C608.722 116.578 608.125 116.723 607.515 116.725C607.011 116.718 606.516 116.611 606.064 116.413C605.613 116.215 605.217 115.93 604.905 115.58C604.185 114.898 603.78 114.002 603.767 113.069H611.607C611.985 113.069 612.174 112.551 612.174 111.517L612.187 111.51ZM603.792 111.607C603.766 110.628 604.16 109.677 604.896 108.947C605.196 108.664 605.559 108.439 605.962 108.287C606.366 108.136 606.8 108.06 607.238 108.065C607.67 108.056 608.099 108.131 608.495 108.283C608.891 108.435 609.246 108.662 609.534 108.947C610.261 109.678 610.634 110.633 610.575 111.607H603.792Z" fill="#5B5B5B"/>
<path d="M617.332 103.649H615.917C614.725 103.649 614.13 104.238 614.13 105.415V107.282H613.092C612.488 107.282 612.188 107.529 612.188 108.029C612.188 108.529 612.488 108.712 613.092 108.712H614.13V117.244C614.112 117.339 614.12 117.436 614.153 117.528C614.187 117.62 614.244 117.704 614.321 117.773C614.398 117.842 614.492 117.895 614.597 117.927C614.701 117.959 614.813 117.969 614.923 117.957C615.034 117.971 615.147 117.962 615.254 117.931C615.36 117.9 615.457 117.847 615.536 117.778C615.616 117.709 615.676 117.625 615.711 117.532C615.747 117.439 615.757 117.341 615.741 117.244V108.682H617.105C617.739 108.682 618.056 108.443 618.056 107.966C618.056 107.495 617.756 107.264 617.152 107.264H615.737V105.919C615.737 105.43 615.866 105.135 616.114 105.035C616.52 104.962 616.935 104.937 617.349 104.96C618 104.96 618.322 104.747 618.322 104.321C618.322 103.896 618 103.649 617.349 103.649H617.332Z" fill="#5B5B5B"/>
<path d="M623.434 106.719C622.684 106.697 621.939 106.845 621.268 107.151C620.597 107.457 620.02 107.91 619.59 108.47C618.762 109.617 618.322 110.959 618.322 112.331C618.322 113.703 618.762 115.046 619.59 116.193C620.033 116.737 620.61 117.181 621.274 117.488C621.938 117.795 622.672 117.958 623.417 117.963C624.162 117.969 624.898 117.817 625.567 117.519C626.237 117.222 626.821 116.787 627.274 116.249C628.145 115.151 628.591 113.821 628.542 112.468C628.589 111.067 628.138 109.69 627.258 108.541C626.837 107.974 626.267 107.512 625.6 107.196C624.933 106.881 624.19 106.722 623.438 106.734L623.434 106.719ZM625.949 115.424C625.693 115.825 625.323 116.156 624.879 116.382C624.434 116.609 623.931 116.723 623.422 116.712C622.396 116.712 621.571 116.238 620.939 115.29C620.358 114.347 620.068 113.279 620.098 112.199C620.058 111.187 620.335 110.186 620.898 109.313C621.151 108.908 621.519 108.573 621.964 108.343C622.409 108.113 622.914 107.997 623.426 108.007C624.435 108.007 625.252 108.488 625.887 109.448C626.495 110.397 626.801 111.481 626.77 112.58C626.81 113.581 626.525 114.57 625.949 115.424Z" fill="#5B5B5B"/>
<path d="M634.43 106.717C633.457 106.717 632.422 107.443 631.323 108.896V107.502C631.323 106.98 631.039 106.717 630.463 106.717C629.887 106.717 629.576 106.991 629.576 107.544V117.232C629.559 117.331 629.57 117.432 629.609 117.526C629.647 117.621 629.712 117.707 629.798 117.777C629.885 117.847 629.989 117.9 630.105 117.931C630.22 117.962 630.343 117.971 630.463 117.956C631.039 117.956 631.323 117.716 631.323 117.229V112.081C631.323 110.938 631.708 110.062 632.47 109.487C633.1 109.098 633.805 108.8 634.555 108.603C635.317 108.367 635.702 108.085 635.702 107.757C635.707 107.619 635.677 107.481 635.613 107.353C635.549 107.225 635.453 107.11 635.331 107.014C635.212 106.918 635.072 106.842 634.917 106.791C634.762 106.74 634.596 106.715 634.43 106.717Z" fill="#5B5B5B"/>
<path d="M644.904 111.51C644.904 110.039 644.502 108.875 643.698 108.017C643.278 107.581 642.767 107.239 642.2 107.016C641.633 106.793 641.024 106.692 640.414 106.722C639.727 106.704 639.047 106.856 638.435 107.164C637.823 107.472 637.299 107.926 636.911 108.485C636.086 109.608 635.662 110.969 635.706 112.354C635.658 113.736 636.09 115.093 636.93 116.201C637.372 116.77 637.945 117.226 638.603 117.532C639.26 117.839 639.982 117.985 640.709 117.961C642.447 117.961 643.776 117.386 644.696 116.238C644.786 116.135 644.835 116.002 644.832 115.866C644.828 115.68 644.75 115.503 644.617 115.371C644.554 115.299 644.476 115.241 644.389 115.202C644.302 115.162 644.206 115.141 644.11 115.141C643.824 115.21 643.563 115.356 643.354 115.561C643.013 115.838 642.649 116.087 642.266 116.305C641.792 116.577 641.254 116.722 640.705 116.725C640.252 116.718 639.805 116.612 639.399 116.414C638.992 116.215 638.635 115.931 638.355 115.58C637.705 114.899 637.34 114.002 637.331 113.069H644.394C644.73 113.069 644.896 112.551 644.896 111.517L644.904 111.51ZM637.346 111.606C637.32 110.628 637.676 109.676 638.34 108.947C638.609 108.663 638.936 108.438 639.299 108.287C639.663 108.135 640.054 108.059 640.448 108.065C640.837 108.057 641.224 108.132 641.581 108.284C641.938 108.437 642.258 108.662 642.519 108.947C643.174 109.678 643.51 110.633 643.456 111.606H637.346Z" fill="#5B5B5B"/>
<path d="M660.454 107.255H659.448V104.321C659.434 104.139 659.347 103.968 659.205 103.843C659.063 103.719 658.877 103.649 658.683 103.649C658.489 103.649 658.302 103.719 658.16 103.843C658.018 103.968 657.931 104.139 657.917 104.321V107.255H656.852C656.758 107.239 656.662 107.244 656.572 107.27C656.481 107.296 656.398 107.343 656.33 107.405C656.262 107.467 656.211 107.544 656.18 107.629C656.15 107.714 656.142 107.804 656.156 107.893C656.156 108.331 656.402 108.549 656.891 108.549H657.917V117.237C657.901 117.334 657.91 117.432 657.941 117.525C657.973 117.618 658.028 117.703 658.1 117.773C658.173 117.842 658.262 117.895 658.36 117.926C658.458 117.958 658.562 117.967 658.665 117.954C658.77 117.971 658.878 117.964 658.981 117.935C659.083 117.906 659.176 117.854 659.254 117.784C659.331 117.715 659.39 117.629 659.426 117.534C659.462 117.439 659.473 117.337 659.46 117.237V108.549H660.502C661.007 108.549 661.261 108.335 661.261 107.904C661.261 107.472 660.991 107.255 660.466 107.255H660.454Z" fill="#5B5B5B"/>
<path d="M621.907 85.7568C621.405 85.235 620.63 85.0015 619.387 85.0015C618.839 85.0063 618.292 85.0379 617.747 85.0963V75.3756C617.747 75.1947 617.71 75.0155 617.639 74.8484C617.568 74.6812 617.464 74.5294 617.332 74.4016C617.201 74.2738 617.045 74.1726 616.873 74.1037C616.701 74.0347 616.517 73.9995 616.332 74H598.891C598.517 74 598.158 74.1449 597.893 74.4029C597.628 74.6609 597.479 75.0108 597.479 75.3756V92.3686C597.479 92.5496 597.515 92.7289 597.586 92.8962C597.657 93.0635 597.76 93.2156 597.892 93.3437C598.023 93.4718 598.178 93.5735 598.35 93.6429C598.521 93.7122 598.705 93.7479 598.891 93.7479H603.575C603.669 93.8866 603.766 94.0252 603.875 94.1566C605.11 95.6162 607.271 96.3642 610.296 96.3642C612.401 96.3097 614.496 96.0777 616.56 95.6709L617.14 95.5724C619.057 95.2476 620.102 94.8426 620.754 94.1602C621.075 94.0649 621.353 93.8637 621.54 93.591C621.577 93.5183 621.598 93.439 621.602 93.3579C621.606 93.2769 621.592 93.196 621.562 93.1203C621.514 93.0019 621.434 92.8985 621.33 92.8211C621.399 92.7222 621.463 92.6199 621.521 92.5146C621.759 92.417 621.958 92.2483 622.09 92.0329C622.129 91.9608 622.151 91.8815 622.155 91.8003C622.16 91.7192 622.147 91.638 622.116 91.5622C622.052 91.4069 621.934 91.278 621.783 91.1973C621.783 91.1025 621.783 91.0076 621.757 90.9164L621.854 90.7631C622.28 90.6476 622.65 90.3891 622.899 90.0333C622.943 89.9453 622.968 89.8495 622.973 89.7517C622.979 89.6539 622.963 89.5561 622.929 89.4641C622.849 89.3056 622.733 89.1666 622.591 89.0573C622.448 88.9481 622.282 88.8714 622.105 88.8328C622.114 88.7887 622.136 88.7481 622.169 88.7161C622.248 88.5738 622.356 88.4242 622.45 88.2673C622.94 88.1253 623.364 87.8207 623.648 87.4061C623.704 87.2983 623.736 87.1803 623.742 87.0597C623.749 86.939 623.729 86.8184 623.685 86.7055C623.434 86.056 622.521 85.8444 621.907 85.775V85.7568ZM621.532 88.2271L619.368 88.5409L621.446 88.7635C621.59 89.1408 621.613 89.5515 621.514 89.942C621.414 90.3325 621.196 90.6847 620.888 90.9528L620.915 91.0076L619.203 91.2302L621.016 91.4017C621.076 91.7393 621.012 92.0867 620.836 92.3832L619.413 92.7883L620.563 92.7591C620.563 92.978 620.342 93.9085 617.032 94.4704C613.254 95.109 602.665 97.3494 604.301 89.2707C605.938 81.192 614.808 77.6708 616.612 77.6708V85.4503C615.635 85.6035 614.767 85.7677 613.992 85.9319C613.142 85.8225 611.131 85.5999 610.075 85.9137L612.475 86.3041C611.405 86.5592 610.367 86.9262 609.379 87.3988C611.56 86.8168 613.779 86.3803 616.021 86.0925C618.249 85.8517 620.709 86.0049 621.199 86.5158C622.038 87.3915 621.768 87.9753 621.514 88.2454L621.532 88.2271Z" fill="#5B5B5B"/>
<path d="M1352.51 112.248C1352.2 112.057 1351.2 111.583 1349.51 110.821C1348.42 110.347 1347.88 109.903 1347.88 109.496C1347.88 108.58 1348.4 108.123 1349.44 108.125C1350.59 108.148 1351.71 108.494 1352.66 109.122C1352.79 109.207 1352.95 109.255 1353.11 109.26C1353.54 109.26 1353.76 109.011 1353.76 108.514C1353.76 108.386 1353.73 108.259 1353.67 108.142C1353.62 108.026 1353.54 107.923 1353.43 107.842C1352.42 107.067 1351.15 106.669 1349.85 106.721C1348.96 106.683 1348.08 106.925 1347.35 107.412C1346.99 107.678 1346.7 108.025 1346.5 108.424C1346.31 108.824 1346.22 109.262 1346.25 109.701C1346.25 110.587 1346.78 111.334 1347.85 111.941C1348.84 112.378 1349.83 112.811 1350.84 113.248C1351.84 113.685 1352.41 114.275 1352.41 114.861C1352.41 116.004 1351.77 116.571 1350.49 116.571C1349.82 116.564 1349.16 116.424 1348.55 116.161C1348.01 115.976 1347.54 115.661 1347.17 115.246C1347.11 115.158 1347.04 115.085 1346.95 115.032C1346.86 114.978 1346.75 114.947 1346.65 114.94C1346.55 114.944 1346.45 114.971 1346.37 115.02C1346.28 115.069 1346.21 115.138 1346.16 115.22C1346.02 115.4 1345.95 115.619 1345.95 115.843C1345.94 116.062 1346.02 116.275 1346.17 116.441C1347.08 117.451 1348.37 117.958 1350.06 117.961C1351.07 117.994 1352.06 117.708 1352.88 117.147C1353.28 116.862 1353.61 116.488 1353.82 116.055C1354.04 115.623 1354.14 115.147 1354.12 114.667C1354.12 113.767 1353.58 112.968 1352.5 112.277L1352.51 112.248Z" fill="#5B5B5B"/>
<path d="M1261.28 107.294H1260.28V104.371C1260.28 104.179 1260.2 103.996 1260.05 103.861C1259.91 103.725 1259.71 103.649 1259.51 103.649C1259.31 103.649 1259.11 103.725 1258.97 103.861C1258.82 103.996 1258.74 104.179 1258.74 104.371V107.294H1257.7C1257.61 107.279 1257.51 107.285 1257.42 107.311C1257.33 107.337 1257.25 107.383 1257.18 107.445C1257.11 107.507 1257.06 107.583 1257.03 107.667C1257 107.751 1256.99 107.841 1257.01 107.929C1257.01 108.366 1257.25 108.583 1257.75 108.583H1258.77V117.24C1258.75 117.336 1258.76 117.434 1258.79 117.527C1258.82 117.619 1258.88 117.704 1258.95 117.773C1259.02 117.843 1259.11 117.895 1259.21 117.926C1259.31 117.958 1259.41 117.967 1259.51 117.954C1259.62 117.971 1259.73 117.964 1259.83 117.935C1259.93 117.906 1260.03 117.854 1260.1 117.785C1260.18 117.716 1260.24 117.63 1260.28 117.535C1260.31 117.441 1260.32 117.339 1260.31 117.24V108.583H1261.36C1261.86 108.583 1262.11 108.37 1262.11 107.94C1262.11 107.51 1261.85 107.294 1261.32 107.294H1261.28Z" fill="#5B5B5B"/>
<path d="M1271.01 107.881C1270.22 107.243 1269.18 106.897 1268.11 106.916C1267.45 106.899 1266.8 107.024 1266.22 107.279C1265.63 107.535 1265.13 107.914 1264.75 108.382V104.398C1264.75 103.896 1264.47 103.649 1263.93 103.649C1263.39 103.649 1263.14 103.904 1263.14 104.398V117.242C1263.13 117.337 1263.13 117.435 1263.17 117.527C1263.2 117.619 1263.26 117.703 1263.33 117.772C1263.41 117.842 1263.5 117.894 1263.61 117.926C1263.71 117.958 1263.82 117.968 1263.93 117.956C1264.04 117.971 1264.16 117.962 1264.26 117.932C1264.37 117.901 1264.46 117.849 1264.54 117.78C1264.62 117.711 1264.68 117.627 1264.72 117.534C1264.75 117.441 1264.76 117.342 1264.75 117.245V111.192C1264.73 110.786 1264.8 110.38 1264.96 109.999C1265.12 109.619 1265.37 109.271 1265.69 108.977C1265.96 108.741 1266.29 108.554 1266.64 108.429C1267 108.303 1267.38 108.242 1267.76 108.247C1268.14 108.241 1268.52 108.302 1268.87 108.428C1269.22 108.553 1269.54 108.74 1269.8 108.977C1270.12 109.272 1270.37 109.621 1270.52 110.002C1270.68 110.382 1270.75 110.787 1270.73 111.192V117.242C1270.71 117.337 1270.72 117.434 1270.75 117.526C1270.78 117.618 1270.84 117.702 1270.92 117.771C1270.99 117.841 1271.09 117.893 1271.19 117.924C1271.3 117.956 1271.41 117.965 1271.52 117.952C1271.63 117.966 1271.74 117.957 1271.84 117.926C1271.95 117.896 1272.05 117.844 1272.13 117.775C1272.2 117.706 1272.26 117.622 1272.3 117.529C1272.33 117.437 1272.34 117.338 1272.33 117.242V110.593C1272.35 110.087 1272.24 109.583 1272.01 109.118C1271.78 108.652 1271.44 108.236 1271.01 107.9V107.881Z" fill="#5B5B5B"/>
<path d="M1283.58 111.51C1283.58 110.039 1283.13 108.875 1282.24 108.017C1281.77 107.58 1281.2 107.239 1280.57 107.016C1279.94 106.792 1279.27 106.692 1278.59 106.722C1277.83 106.704 1277.07 106.856 1276.39 107.164C1275.71 107.472 1275.13 107.927 1274.7 108.485C1273.78 109.608 1273.31 110.969 1273.36 112.354C1273.31 113.736 1273.79 115.093 1274.72 116.201C1275.21 116.77 1275.85 117.226 1276.58 117.532C1277.31 117.839 1278.11 117.985 1278.92 117.961C1280.85 117.961 1282.32 117.386 1283.34 116.238C1283.44 116.135 1283.5 116.002 1283.49 115.866C1283.49 115.68 1283.4 115.503 1283.26 115.371C1283.19 115.299 1283.1 115.241 1283 115.201C1282.91 115.161 1282.8 115.14 1282.69 115.141C1282.38 115.209 1282.08 115.355 1281.85 115.561C1281.47 115.838 1281.07 116.087 1280.64 116.305C1280.12 116.578 1279.52 116.723 1278.91 116.725C1278.41 116.718 1277.91 116.611 1277.46 116.413C1277.01 116.215 1276.61 115.93 1276.3 115.58C1275.58 114.898 1275.18 114.002 1275.16 113.069H1283.02C1283.39 113.069 1283.58 112.551 1283.58 111.517L1283.58 111.51ZM1275.19 111.607C1275.16 110.627 1275.56 109.675 1276.3 108.947C1276.59 108.663 1276.96 108.438 1277.36 108.286C1277.76 108.134 1278.2 108.059 1278.64 108.065C1279.07 108.057 1279.5 108.132 1279.89 108.284C1280.29 108.436 1280.64 108.662 1280.93 108.947C1281.66 109.678 1282.03 110.633 1281.97 111.607H1275.19Z" fill="#5B5B5B"/>
<path d="M1298.73 107.64C1297.98 107.026 1297.01 106.697 1296.02 106.718C1295.28 106.699 1294.55 106.863 1293.91 107.193C1293.26 107.524 1292.72 108.009 1292.34 108.599C1291.62 107.348 1290.57 106.721 1289.18 106.718C1288.58 106.716 1287.98 106.857 1287.45 107.127C1286.92 107.397 1286.47 107.788 1286.14 108.264V107.571C1286.14 107.004 1285.9 106.718 1285.37 106.718C1284.85 106.718 1284.61 107.008 1284.61 107.579V117.221C1284.6 117.32 1284.61 117.42 1284.64 117.515C1284.67 117.61 1284.73 117.696 1284.8 117.766C1284.88 117.837 1284.97 117.89 1285.07 117.921C1285.17 117.953 1285.28 117.962 1285.39 117.948C1285.49 117.961 1285.6 117.95 1285.69 117.918C1285.79 117.885 1285.88 117.832 1285.96 117.761C1286.03 117.69 1286.08 117.605 1286.11 117.511C1286.15 117.417 1286.15 117.318 1286.14 117.221V111.309C1286.12 110.89 1286.19 110.471 1286.34 110.078C1286.5 109.686 1286.74 109.327 1287.05 109.025C1287.31 108.78 1287.62 108.587 1287.96 108.456C1288.3 108.326 1288.67 108.26 1289.04 108.264C1289.35 108.258 1289.66 108.31 1289.95 108.419C1290.24 108.527 1290.51 108.69 1290.73 108.896C1290.98 109.149 1291.18 109.448 1291.31 109.775C1291.44 110.102 1291.5 110.451 1291.48 110.799V117.198C1291.47 117.297 1291.48 117.397 1291.51 117.492C1291.54 117.587 1291.6 117.673 1291.67 117.743C1291.75 117.814 1291.84 117.867 1291.94 117.899C1292.04 117.93 1292.15 117.939 1292.25 117.925C1292.36 117.938 1292.46 117.929 1292.56 117.897C1292.66 117.865 1292.75 117.811 1292.82 117.741C1292.9 117.671 1292.95 117.585 1292.98 117.492C1293.01 117.398 1293.02 117.299 1293 117.202V111.34C1292.99 110.919 1293.06 110.499 1293.22 110.106C1293.38 109.713 1293.63 109.355 1293.95 109.056C1294.2 108.805 1294.51 108.606 1294.85 108.471C1295.19 108.336 1295.56 108.268 1295.93 108.271C1296.24 108.265 1296.55 108.319 1296.84 108.431C1297.13 108.542 1297.39 108.708 1297.6 108.919C1297.86 109.179 1298.06 109.485 1298.19 109.819C1298.32 110.154 1298.37 110.509 1298.35 110.864V117.248C1298.35 117.724 1298.62 117.956 1299.16 117.956C1299.27 117.971 1299.37 117.963 1299.47 117.933C1299.57 117.903 1299.66 117.852 1299.74 117.783C1299.81 117.714 1299.87 117.63 1299.9 117.537C1299.94 117.444 1299.95 117.345 1299.93 117.248V110.205C1299.95 109.722 1299.85 109.242 1299.65 108.799C1299.44 108.357 1299.13 107.963 1298.74 107.647L1298.73 107.64Z" fill="#5B5B5B"/>
<path d="M1311.19 111.51C1311.19 110.039 1310.74 108.875 1309.85 108.017C1309.38 107.58 1308.81 107.239 1308.18 107.016C1307.55 106.792 1306.87 106.692 1306.2 106.722C1305.43 106.704 1304.68 106.856 1304 107.164C1303.32 107.472 1302.74 107.927 1302.31 108.485C1301.39 109.608 1300.92 110.969 1300.97 112.354C1300.91 113.736 1301.39 115.093 1302.33 116.201C1302.82 116.77 1303.45 117.226 1304.18 117.532C1304.91 117.839 1305.72 117.985 1306.52 117.961C1308.45 117.961 1309.93 117.386 1310.95 116.238C1311.05 116.135 1311.11 116.002 1311.1 115.866C1311.1 115.681 1311.01 115.505 1310.87 115.371C1310.8 115.3 1310.71 115.242 1310.61 115.202C1310.51 115.163 1310.41 115.142 1310.3 115.141C1309.98 115.208 1309.69 115.354 1309.46 115.561C1309.08 115.838 1308.68 116.087 1308.25 116.305C1307.72 116.578 1307.12 116.723 1306.52 116.725C1306.01 116.718 1305.52 116.611 1305.06 116.413C1304.61 116.215 1304.22 115.93 1303.9 115.58C1303.19 114.898 1302.78 114.002 1302.77 113.069H1310.61C1310.98 113.069 1311.17 112.551 1311.17 111.517L1311.19 111.51ZM1302.79 111.607C1302.77 110.628 1303.16 109.677 1303.9 108.947C1304.2 108.664 1304.56 108.439 1304.96 108.287C1305.37 108.136 1305.8 108.06 1306.24 108.065C1306.67 108.056 1307.1 108.131 1307.49 108.283C1307.89 108.435 1308.25 108.662 1308.53 108.947C1309.26 109.678 1309.63 110.633 1309.57 111.607H1302.79Z" fill="#5B5B5B"/>
<path d="M1316.33 103.649H1314.92C1313.72 103.649 1313.13 104.238 1313.13 105.415V107.282H1312.09C1311.49 107.282 1311.19 107.529 1311.19 108.029C1311.19 108.529 1311.49 108.712 1312.09 108.712H1313.13V117.244C1313.11 117.339 1313.12 117.436 1313.15 117.528C1313.19 117.62 1313.24 117.704 1313.32 117.773C1313.4 117.842 1313.49 117.895 1313.6 117.927C1313.7 117.959 1313.81 117.969 1313.92 117.957C1314.03 117.971 1314.15 117.962 1314.25 117.931C1314.36 117.9 1314.46 117.847 1314.54 117.778C1314.62 117.709 1314.68 117.625 1314.71 117.532C1314.75 117.439 1314.76 117.341 1314.74 117.244V108.682H1316.1C1316.74 108.682 1317.06 108.443 1317.06 107.966C1317.06 107.495 1316.76 107.264 1316.15 107.264H1314.74V105.919C1314.74 105.43 1314.87 105.135 1315.11 105.035C1315.52 104.962 1315.93 104.937 1316.35 104.96C1317 104.96 1317.32 104.747 1317.32 104.321C1317.32 103.896 1317 103.649 1316.35 103.649H1316.33Z" fill="#5B5B5B"/>
<path d="M1322.43 106.719C1321.68 106.697 1320.94 106.845 1320.27 107.151C1319.6 107.457 1319.02 107.91 1318.59 108.47C1317.76 109.617 1317.32 110.959 1317.32 112.331C1317.32 113.703 1317.76 115.046 1318.59 116.193C1319.03 116.737 1319.61 117.181 1320.27 117.488C1320.94 117.795 1321.67 117.958 1322.42 117.963C1323.16 117.969 1323.9 117.817 1324.57 117.519C1325.24 117.222 1325.82 116.787 1326.27 116.249C1327.14 115.151 1327.59 113.821 1327.54 112.468C1327.59 111.067 1327.14 109.69 1326.26 108.541C1325.84 107.974 1325.27 107.512 1324.6 107.196C1323.93 106.881 1323.19 106.722 1322.44 106.734L1322.43 106.719ZM1324.95 115.424C1324.69 115.825 1324.32 116.156 1323.88 116.382C1323.43 116.609 1322.93 116.723 1322.42 116.712C1321.4 116.712 1320.57 116.238 1319.94 115.29C1319.36 114.347 1319.07 113.279 1319.1 112.199C1319.06 111.187 1319.33 110.186 1319.9 109.313C1320.15 108.908 1320.52 108.573 1320.96 108.343C1321.41 108.113 1321.91 107.997 1322.42 108.007C1323.43 108.007 1324.25 108.488 1324.89 109.448C1325.49 110.397 1325.8 111.481 1325.77 112.58C1325.81 113.581 1325.52 114.57 1324.95 115.424Z" fill="#5B5B5B"/>
<path d="M1333.43 106.717C1332.46 106.717 1331.42 107.443 1330.32 108.896V107.502C1330.32 106.98 1330.04 106.717 1329.46 106.717C1328.89 106.717 1328.58 106.991 1328.58 107.544V117.232C1328.56 117.331 1328.57 117.432 1328.61 117.526C1328.65 117.621 1328.71 117.707 1328.8 117.777C1328.88 117.847 1328.99 117.9 1329.1 117.931C1329.22 117.962 1329.34 117.971 1329.46 117.956C1330.04 117.956 1330.32 117.716 1330.32 117.229V112.081C1330.32 110.938 1330.71 110.062 1331.47 109.487C1332.1 109.098 1332.8 108.8 1333.55 108.603C1334.32 108.367 1334.7 108.085 1334.7 107.757C1334.71 107.619 1334.68 107.481 1334.61 107.353C1334.55 107.225 1334.45 107.11 1334.33 107.014C1334.21 106.918 1334.07 106.842 1333.92 106.791C1333.76 106.74 1333.6 106.715 1333.43 106.717Z" fill="#5B5B5B"/>
<path d="M1343.9 111.51C1343.9 110.039 1343.5 108.875 1342.7 108.017C1342.28 107.581 1341.77 107.239 1341.2 107.016C1340.63 106.793 1340.02 106.692 1339.41 106.722C1338.73 106.704 1338.05 106.856 1337.43 107.164C1336.82 107.472 1336.3 107.926 1335.91 108.485C1335.09 109.608 1334.66 110.969 1334.71 112.354C1334.66 113.736 1335.09 115.093 1335.93 116.201C1336.37 116.77 1336.94 117.226 1337.6 117.532C1338.26 117.839 1338.98 117.985 1339.71 117.961C1341.45 117.961 1342.78 117.386 1343.7 116.238C1343.79 116.135 1343.83 116.002 1343.83 115.866C1343.83 115.68 1343.75 115.503 1343.62 115.371C1343.55 115.299 1343.48 115.241 1343.39 115.202C1343.3 115.162 1343.21 115.141 1343.11 115.141C1342.82 115.21 1342.56 115.356 1342.35 115.561C1342.01 115.838 1341.65 116.087 1341.27 116.305C1340.79 116.577 1340.25 116.722 1339.7 116.725C1339.25 116.718 1338.8 116.612 1338.4 116.414C1337.99 116.215 1337.64 115.931 1337.35 115.58C1336.7 114.899 1336.34 114.002 1336.33 113.069H1343.39C1343.73 113.069 1343.9 112.551 1343.9 111.517L1343.9 111.51ZM1336.35 111.606C1336.32 110.628 1336.68 109.676 1337.34 108.947C1337.61 108.663 1337.94 108.438 1338.3 108.287C1338.66 108.135 1339.05 108.059 1339.45 108.065C1339.84 108.057 1340.22 108.132 1340.58 108.284C1340.94 108.437 1341.26 108.662 1341.52 108.947C1342.17 109.678 1342.51 110.633 1342.46 111.606H1336.35Z" fill="#5B5B5B"/>
<path d="M1359.45 107.255H1358.45V104.321C1358.43 104.139 1358.35 103.968 1358.2 103.843C1358.06 103.719 1357.88 103.649 1357.68 103.649C1357.49 103.649 1357.3 103.719 1357.16 103.843C1357.02 103.968 1356.93 104.139 1356.92 104.321V107.255H1355.85C1355.76 107.239 1355.66 107.244 1355.57 107.27C1355.48 107.296 1355.4 107.343 1355.33 107.405C1355.26 107.467 1355.21 107.544 1355.18 107.629C1355.15 107.714 1355.14 107.804 1355.16 107.893C1355.16 108.331 1355.4 108.549 1355.89 108.549H1356.92V117.237C1356.9 117.334 1356.91 117.432 1356.94 117.525C1356.97 117.618 1357.03 117.703 1357.1 117.773C1357.17 117.842 1357.26 117.895 1357.36 117.926C1357.46 117.958 1357.56 117.967 1357.66 117.954C1357.77 117.971 1357.88 117.964 1357.98 117.935C1358.08 117.906 1358.18 117.854 1358.25 117.784C1358.33 117.715 1358.39 117.629 1358.43 117.534C1358.46 117.439 1358.47 117.337 1358.46 117.237V108.549H1359.5C1360.01 108.549 1360.26 108.335 1360.26 107.904C1360.26 107.472 1359.99 107.255 1359.47 107.255H1359.45Z" fill="#5B5B5B"/>
<path d="M1320.91 85.7568C1320.4 85.235 1319.63 85.0015 1318.39 85.0015C1317.84 85.0063 1317.29 85.0379 1316.75 85.0963V75.3756C1316.75 75.1947 1316.71 75.0155 1316.64 74.8484C1316.57 74.6812 1316.46 74.5294 1316.33 74.4016C1316.2 74.2738 1316.04 74.1726 1315.87 74.1037C1315.7 74.0347 1315.52 73.9995 1315.33 74H1297.89C1297.52 74 1297.16 74.1449 1296.89 74.4029C1296.63 74.6609 1296.48 75.0108 1296.48 75.3756V92.3686C1296.48 92.5496 1296.51 92.7289 1296.59 92.8962C1296.66 93.0635 1296.76 93.2156 1296.89 93.3437C1297.02 93.4718 1297.18 93.5735 1297.35 93.6429C1297.52 93.7122 1297.7 93.7479 1297.89 93.7479H1302.57C1302.67 93.8866 1302.77 94.0252 1302.87 94.1566C1304.11 95.6162 1306.27 96.3642 1309.3 96.3642C1311.4 96.3097 1313.5 96.0777 1315.56 95.6709L1316.14 95.5724C1318.06 95.2476 1319.1 94.8426 1319.75 94.1602C1320.07 94.0649 1320.35 93.8637 1320.54 93.591C1320.58 93.5183 1320.6 93.439 1320.6 93.3579C1320.61 93.2769 1320.59 93.196 1320.56 93.1203C1320.51 93.0019 1320.43 92.8985 1320.33 92.8211C1320.4 92.7222 1320.46 92.6199 1320.52 92.5146C1320.76 92.417 1320.96 92.2483 1321.09 92.0329C1321.13 91.9608 1321.15 91.8815 1321.15 91.8003C1321.16 91.7192 1321.15 91.638 1321.12 91.5622C1321.05 91.4069 1320.93 91.278 1320.78 91.1973C1320.78 91.1025 1320.78 91.0076 1320.76 90.9164L1320.85 90.7631C1321.28 90.6476 1321.65 90.3891 1321.9 90.0333C1321.94 89.9453 1321.97 89.8495 1321.97 89.7517C1321.98 89.6539 1321.96 89.5561 1321.93 89.4641C1321.85 89.3056 1321.73 89.1666 1321.59 89.0573C1321.45 88.9481 1321.28 88.8714 1321.1 88.8328C1321.11 88.7887 1321.14 88.7481 1321.17 88.7161C1321.25 88.5738 1321.36 88.4242 1321.45 88.2673C1321.94 88.1253 1322.36 87.8207 1322.65 87.4061C1322.7 87.2983 1322.74 87.1803 1322.74 87.0597C1322.75 86.939 1322.73 86.8184 1322.68 86.7055C1322.43 86.056 1321.52 85.8444 1320.91 85.775V85.7568ZM1320.53 88.2271L1318.37 88.5409L1320.45 88.7635C1320.59 89.1408 1320.61 89.5515 1320.51 89.942C1320.41 90.3325 1320.2 90.6847 1319.89 90.9528L1319.91 91.0076L1318.2 91.2302L1320.02 91.4017C1320.08 91.7393 1320.01 92.0867 1319.84 92.3832L1318.41 92.7883L1319.56 92.7591C1319.56 92.978 1319.34 93.9085 1316.03 94.4704C1312.25 95.109 1301.66 97.3494 1303.3 89.2707C1304.94 81.192 1313.81 77.6708 1315.61 77.6708V85.4503C1314.63 85.6035 1313.77 85.7677 1312.99 85.9319C1312.14 85.8225 1310.13 85.5999 1309.07 85.9137L1311.47 86.3041C1310.4 86.5592 1309.37 86.9262 1308.38 87.3988C1310.56 86.8168 1312.78 86.3803 1315.02 86.0925C1317.25 85.8517 1319.71 86.0049 1320.2 86.5158C1321.04 87.3915 1320.77 87.9753 1320.51 88.2454L1320.53 88.2271Z" fill="#5B5B5B"/>
<path d="M857.096 73.0704C857.096 71.5335 856.515 71.0176 854.828 71.0132C849.812 70.9956 844.797 70.9956 839.782 71.0132C838.034 71.0132 837.473 71.5138 837.463 73.1363C837.438 77.7294 837.438 82.3232 837.463 86.9178C837.463 88.5118 837.389 88.6501 835.661 88.7379C835.273 88.7599 834.883 88.7599 834.495 88.7379C832.266 88.604 830.322 87.6819 828.349 86.8431V89.1858C829.439 92.0247 831.83 93.1817 834.91 93.2717C835.987 93.3047 836.349 93.656 836.409 94.5562C836.485 96.1299 837.006 97.6586 837.919 98.9934C838.835 100.311 839.199 100.311 840.038 98.9407C841.306 96.8747 842.05 94.6242 842.623 92.3299C842.795 91.6383 843.203 91.2672 843.845 90.8983C846.502 89.3615 849.333 88.6567 852.476 88.986C853.291 89.0387 854.109 89.0387 854.924 88.986C856.511 88.9443 857.081 88.424 857.093 86.9441C857.111 82.3247 857.112 77.7001 857.096 73.0704ZM844.306 74.155C844.272 73.661 844.682 73.4963 845.145 73.4546C845.948 73.3866 846.751 73.3317 847.782 73.2526C846.566 74.8327 845.522 76.5182 844.665 78.2849C844.061 76.8248 844.394 75.4745 844.306 74.155ZM855.158 79.5868C854.538 80.1643 854.322 81.0952 853.874 81.8417C852.284 84.4895 849.757 86.2591 847.06 87.8553C845.614 88.6965 844.09 89.4187 842.505 90.0135C842.193 90.1122 841.917 90.287 841.705 90.5192C841.494 90.7514 841.356 91.0321 841.306 91.3309C840.928 93.0697 840.389 94.776 839.695 96.4312C839.511 96.8505 839.403 97.3094 838.907 97.709C838.096 96.4817 837.962 95.1643 837.919 93.8228C837.854 91.8271 838.288 91.8907 835.74 91.9149C834.074 91.9303 832.479 91.6953 831.144 90.6832C830.6 90.2931 830.229 89.7352 830.101 89.1134C831.885 89.7413 833.525 90.2111 835.253 90.1914C838.08 90.1475 840.048 88.7423 841.561 86.6785C842.482 85.402 843.241 84.0334 843.824 82.5991C845.066 79.6307 846.53 76.7633 848.587 74.1858C849.875 72.572 851.399 71.3469 853.862 71.6828C855.494 71.9024 856.28 72.5984 856.319 74.1309C856.333 74.772 856.288 75.4153 856.331 76.052C856.412 77.3737 856.276 78.5483 855.158 79.5868Z" fill="#5B5B5B"/>
<path d="M806.095 115.603C804.429 116.663 802.703 116.758 801.109 115.638C799.179 114.283 798.759 112.345 799.114 110.257C799.385 108.669 800.229 107.367 801.905 106.671C802.448 106.422 803.053 106.305 803.66 106.333C804.267 106.361 804.856 106.533 805.369 106.832C805.849 107.111 806.115 107.256 806.534 106.669C806.954 106.083 807.531 106.289 807.86 106.909C807.912 107.005 807.94 107.111 807.941 107.218C807.941 110.386 808.152 113.559 807.836 116.718C807.683 118.268 806.683 119.371 805.029 119.814C804.153 120.07 803.222 120.125 802.318 119.974C801.413 119.823 800.563 119.47 799.843 118.947C799.742 118.89 799.655 118.814 799.586 118.726C799.517 118.637 799.468 118.537 799.442 118.431C799.416 118.325 799.413 118.215 799.434 118.108C799.455 118.001 799.498 117.899 799.563 117.807C799.85 117.386 800.306 117.502 800.711 117.684C801.548 118.058 802.358 118.477 803.334 118.503C805.216 118.554 806.278 117.478 806.095 115.603ZM806.278 111.554C806.335 110.558 806.189 109.655 805.642 108.832C804.65 107.341 802.432 107.321 801.555 108.867C800.579 110.586 800.579 112.38 801.699 114.053C802.626 115.443 804.59 115.405 805.558 114.038C806.085 113.303 806.335 112.431 806.268 111.554H806.278Z" fill="#5B5B5B"/>
<path d="M825.909 107.416C829.026 104.957 832.154 107.295 832.747 109.703C833.125 111.24 833.116 112.735 832.322 114.171C831.124 116.336 828.765 117.008 826.456 115.842C826.29 115.759 826.12 115.682 825.852 115.555C825.588 116.479 825.777 117.357 825.713 118.218C825.701 118.642 825.657 119.064 825.581 119.482C825.548 119.643 825.449 119.786 825.305 119.881C825.16 119.977 824.981 120.018 824.804 119.996C824.646 119.994 824.493 119.941 824.373 119.848C824.252 119.754 824.171 119.625 824.142 119.482C824.061 119.137 824.017 118.784 824.011 118.431C824.011 114.946 824.011 111.462 824.011 107.978C824.011 107.907 824.011 107.837 824.011 107.758C824.039 107.227 823.984 106.621 824.699 106.43C825.514 106.217 825.514 107.003 825.909 107.416ZM825.732 111.275C825.685 112.211 825.935 113.139 826.451 113.947C827.391 115.454 829.498 115.495 830.39 113.972C830.87 113.194 831.124 112.317 831.131 111.425C831.137 110.532 830.894 109.652 830.426 108.869C829.534 107.297 827.372 107.312 826.406 108.856C825.924 109.584 825.69 110.426 825.732 111.275Z" fill="#5B5B5B"/>
<path d="M822.877 111.418C822.877 112.628 822.877 113.833 822.877 115.047C822.877 115.469 822.889 115.956 822.41 116.183C821.93 116.409 821.51 116.251 821.249 115.792C821.079 115.495 820.885 115.689 820.676 115.774C817.123 117.23 814.486 115.904 814.007 112.389C813.775 110.891 814.146 109.367 815.05 108.101C816.363 106.252 818.471 105.852 820.494 107.04C820.818 107.231 821.098 107.587 821.288 106.928C821.393 106.564 821.654 106.285 822.136 106.371C822.618 106.456 822.721 106.81 822.791 107.165C822.849 107.482 822.878 107.803 822.877 108.125C822.877 109.223 822.877 110.32 822.877 111.434V111.418ZM821.182 111.418C821.165 110.603 820.937 109.803 820.516 109.084C820.302 108.699 819.968 108.381 819.556 108.171C819.144 107.961 818.672 107.868 818.202 107.905C817.174 107.938 816.574 108.494 816.21 109.302C815.877 110.005 815.708 110.764 815.714 111.531C815.721 112.297 815.903 113.054 816.248 113.752C817.032 115.392 819.094 115.579 820.269 114.134C820.918 113.341 821.098 112.4 821.172 111.418H821.182Z" fill="#5B5B5B"/>
<path d="M880.589 110.494C880.589 111.943 880.369 112.163 878.794 112.169C877.434 112.169 876.075 112.158 874.718 112.169C873.519 112.182 873.344 112.474 873.944 113.454C874.999 115.173 876.581 115.502 878.446 114.448C879 114.134 879.695 113.269 880.297 114.156C880.858 114.984 879.872 115.412 879.237 115.752C877.528 116.663 875.744 116.732 874.044 115.763C872.162 114.687 871.647 112.955 871.69 111.054C871.709 110.266 871.913 109.492 872.289 108.784C873.287 106.906 875.166 106.006 877.235 106.426C879.304 106.845 880.575 108.366 880.589 110.494ZM876.161 110.593C876.703 110.593 877.247 110.604 877.789 110.593C878.834 110.566 879.098 110.202 878.681 109.317C878.264 108.432 877.516 107.87 876.468 107.807C875.962 107.763 875.453 107.857 875.005 108.079C874.558 108.301 874.192 108.639 873.956 109.051C873.258 110.149 873.512 110.588 874.883 110.588C875.31 110.597 875.735 110.593 876.161 110.593Z" fill="#5B5B5B"/>
<path d="M835.792 107.247C837.504 106.191 839.065 106.033 840.611 107.087C841.585 107.745 842.011 108.694 842.03 109.776C842.059 111.482 842.05 113.188 842.03 114.896C842.03 115.432 842.03 116.097 841.254 116.128C840.376 116.163 840.383 115.436 840.369 114.883C840.331 113.285 840.369 111.682 840.321 110.084C840.28 108.718 839.379 107.822 838.111 107.789C836.843 107.756 835.8 108.692 835.752 110.07C835.704 111.449 835.73 112.843 835.718 114.231C835.727 114.586 835.709 114.941 835.665 115.294C835.596 115.733 835.426 116.172 834.829 116.145C834.232 116.119 834.11 115.669 834.057 115.226C834.034 115.013 834.026 114.8 834.033 114.587C834.033 111.459 834.033 108.329 834.033 105.198C834.027 104.914 834.046 104.63 834.09 104.349C834.16 103.986 834.33 103.64 834.795 103.611C835.33 103.582 835.584 103.932 835.625 104.342C835.718 105.247 835.737 106.162 835.792 107.247Z" fill="#5B5B5B"/>
<path d="M848.225 111.328C848.347 112.744 848.603 113.849 849.792 114.534C850.641 115.026 851.519 114.802 852.389 114.602C852.938 114.477 853.525 114.332 853.731 115.01C853.916 115.621 853.42 115.906 852.899 116.126C850.79 117.019 848.078 116.027 847.074 113.904C846.129 111.912 846.268 109.934 847.592 108.101C848.81 106.408 851.384 105.842 853.168 106.821C853.631 107.078 853.997 107.392 853.748 107.947C853.508 108.465 853.06 108.432 852.571 108.305C849.828 107.589 848.143 108.863 848.225 111.328Z" fill="#5B5B5B"/>
<path d="M867.394 113.515C868.13 111.581 868.765 109.906 869.403 108.233C869.499 107.962 869.611 107.696 869.736 107.436C869.94 107.034 870.216 106.634 870.779 106.792C871.383 106.959 871.321 107.451 871.172 107.862C870.247 110.388 869.305 112.909 868.346 115.425C868.183 115.851 867.866 116.187 867.32 116.156C866.84 116.132 866.576 115.796 866.433 115.41C865.51 112.918 864.587 110.428 863.69 107.932C863.534 107.493 863.412 106.95 864.095 106.781C864.726 106.626 865.011 107.087 865.176 107.535C865.814 109.249 866.421 110.975 867.042 112.696C867.113 112.892 867.207 113.083 867.394 113.515Z" fill="#5B5B5B"/>
<path d="M883.317 107.635C883.87 107.108 884.29 106.636 884.954 106.443C885.51 106.28 885.968 106.39 886.258 106.847C886.584 107.356 886.344 107.839 885.822 107.984C883.106 108.748 882.995 110.678 883.137 112.771C883.189 113.548 883.156 114.332 883.137 115.113C883.12 115.594 883.007 116.086 882.336 116.095C881.732 116.095 881.576 115.655 881.557 115.216C881.432 112.582 881.423 109.965 881.557 107.341C881.578 106.917 881.684 106.423 882.3 106.421C883.082 106.412 883.019 107.117 883.317 107.635Z" fill="#5B5B5B"/>
<path d="M856.146 107.776C856.759 107.249 857.157 106.704 857.845 106.458C858.442 106.252 858.95 106.362 859.25 106.862C859.588 107.427 859.264 107.879 858.684 108.046C856.368 108.705 855.918 110.288 856.074 112.237C856.145 113.115 856.095 114.013 856.074 114.903C856.074 115.434 856.117 116.095 855.278 116.071C854.439 116.046 854.537 115.377 854.537 114.854C854.527 112.471 854.527 110.09 854.537 107.71C854.537 107.194 854.422 106.496 855.203 106.426C856.095 106.355 856.042 107.097 856.146 107.776Z" fill="#5B5B5B"/>
<path d="M810.857 107.653C811.519 107.213 811.864 106.669 812.523 106.465C813.125 106.28 813.619 106.366 813.923 106.884C814.228 107.402 813.923 107.762 813.429 108.024C813.162 108.169 812.883 108.297 812.595 108.406C811.308 108.88 810.797 109.798 810.792 111.012C810.792 112.294 810.792 113.574 810.778 114.854C810.778 115.381 810.826 116.051 810.015 116.077C809.16 116.103 809.246 115.418 809.243 114.9C809.231 112.516 809.231 110.132 809.243 107.749C809.243 107.24 809.088 106.542 809.872 106.432C810.656 106.322 810.73 106.998 810.857 107.653Z" fill="#5B5B5B"/>
<path d="M845.087 111.282C845.087 112.527 845.087 113.774 845.087 115.015C845.087 115.528 844.998 116.095 844.288 116.126C843.579 116.156 843.433 115.57 843.428 115.072C843.402 112.547 843.402 110.022 843.428 107.497C843.428 106.999 843.545 106.399 844.284 106.439C845.022 106.478 845.084 107.025 845.089 107.537C845.096 108.784 845.087 110.037 845.087 111.282Z" fill="#5B5B5B"/>
<path d="M862.126 111.297C862.126 112.542 862.126 113.787 862.126 115.03C862.126 115.55 862.018 116.11 861.309 116.127C860.599 116.145 860.465 115.559 860.46 115.06C860.436 112.533 860.436 110.006 860.46 107.481C860.46 106.983 860.59 106.399 861.33 106.441C862.071 106.482 862.119 107.042 862.124 107.558C862.136 108.805 862.126 110.05 862.126 111.297Z" fill="#5B5B5B"/>
<path d="M1037.33 87.9745C1037.06 87.829 1036.56 87.8026 1035.89 87.8797C1034.37 88.0697 1032.94 88.7226 1031.79 89.7507C1029.44 91.8376 1027.66 94.7069 1027.51 98.8455C1027.47 98.9667 1027.16 98.83 1027.1 98.7904C1026.25 97.1596 1025.91 95.4429 1026.62 92.9725C1026.76 92.7522 1026.32 92.4811 1026.24 92.5582C1025.77 93.0424 1025.36 93.5783 1025.01 94.1559C1022.87 97.8714 1024.27 102.629 1028.01 104.712C1028.9 105.207 1029.88 105.523 1030.89 105.639C1031.91 105.756 1032.93 105.672 1033.91 105.392C1034.89 105.112 1035.81 104.642 1036.61 104.008C1037.41 103.374 1038.07 102.589 1038.57 101.697C1040.99 97.3734 1038.74 88.7634 1037.33 87.9745Z" fill="#5B5B5B"/>
<path d="M1050.73 90.0483C1046.29 90.0483 1043.07 93.3539 1043.07 97.898C1043.07 102.482 1046.28 105.686 1050.88 105.686C1053.21 105.686 1055.05 104.959 1056.51 103.462C1056.81 103.169 1056.98 102.775 1057 102.361C1057 102.189 1056.97 102.018 1056.9 101.859C1056.84 101.7 1056.74 101.557 1056.62 101.436C1056.5 101.316 1056.35 101.223 1056.19 101.162C1056.03 101.1 1055.86 101.073 1055.69 101.08C1055.49 101.085 1055.29 101.131 1055.1 101.214C1054.92 101.297 1054.75 101.417 1054.62 101.565C1053.79 102.336 1052.7 103.125 1050.88 103.125C1048.37 103.125 1046.32 101.234 1046.19 98.806H1056.22C1057.32 98.806 1057.83 98.2947 1057.83 97.2479C1057.84 96.9228 1057.82 96.5978 1057.77 96.2761C1057.23 92.3777 1054.6 90.0505 1050.72 90.0505L1050.73 90.0483ZM1050.73 92.4835C1053.14 92.4835 1054.68 94.0261 1054.78 96.4943H1046.18C1046.3 95.379 1046.83 94.3484 1047.67 93.6059C1048.51 92.8634 1049.6 92.4629 1050.72 92.4835H1050.73Z" fill="#5B5B5B"/>
<path d="M1067.41 90.0483C1065.39 90.0483 1063.4 91.2097 1062.62 92.8206V91.8245C1062.62 90.2819 1061.42 90.2048 1061.18 90.2048C1060.47 90.2048 1059.72 90.6301 1059.72 91.8245V103.848C1059.72 105.448 1060.99 105.53 1061.24 105.53C1061.5 105.53 1062.77 105.448 1062.77 103.848V97.4022C1062.77 94.5968 1064.36 92.6399 1066.63 92.6399C1068.84 92.6399 1069.91 94.0856 1069.91 97.0606V103.848C1069.91 105.448 1071.18 105.53 1071.44 105.53C1071.69 105.53 1072.97 105.448 1072.97 103.848V96.102C1072.97 93.1754 1071.51 90.0505 1067.41 90.0505V90.0483Z" fill="#5B5B5B"/>
<path d="M1086.79 90.2048C1086.08 90.2048 1085.57 90.6169 1085.27 91.4257L1081.08 101.935L1076.94 91.4301C1076.61 90.6081 1076.1 90.2093 1075.38 90.2093C1074.99 90.2016 1074.6 90.3515 1074.32 90.6263C1074.03 90.901 1073.87 91.278 1073.86 91.6747C1073.86 91.973 1073.92 92.2675 1074.05 92.5386L1078.85 103.879C1079.42 105.248 1080.36 105.534 1081.05 105.534C1081.74 105.534 1082.68 105.248 1083.26 103.879L1088.09 92.4725C1088.2 92.2096 1088.27 91.9268 1088.28 91.6395C1088.28 91.446 1088.24 91.2544 1088.16 91.0764C1088.09 90.8983 1087.97 90.7374 1087.83 90.6034C1087.69 90.4694 1087.53 90.365 1087.35 90.2965C1087.17 90.228 1086.97 90.1968 1086.78 90.2048H1086.79Z" fill="#5B5B5B"/>
<path d="M1095.67 90.0483C1093.71 90.0483 1091.89 90.5927 1090.54 91.591C1090.34 91.7156 1090.16 91.8922 1090.04 92.1036C1089.92 92.3149 1089.86 92.5537 1089.86 92.7964C1089.86 92.9547 1089.89 93.1121 1089.95 93.2594C1090 93.4067 1090.09 93.5409 1090.2 93.6542C1090.31 93.7675 1090.44 93.8576 1090.59 93.9192C1090.74 93.9807 1090.89 94.0126 1091.05 94.0129C1091.38 93.9993 1091.69 93.8872 1091.96 93.6911C1093.12 92.9176 1094.21 92.5562 1095.39 92.5562C1097.65 92.5562 1098.94 93.7065 1098.94 95.7097V96.0403C1093.87 96.0403 1088.72 96.6595 1088.72 101.069C1088.72 104.243 1091.43 105.664 1094.12 105.664C1096.26 105.664 1097.97 104.816 1099.07 103.209V103.983C1099.07 105.133 1099.84 105.541 1100.5 105.541C1100.64 105.541 1101.87 105.496 1101.87 103.983V95.8948C1101.87 92.2411 1099.55 90.0594 1095.67 90.0594V90.0483ZM1098.31 98.2793H1098.95V98.9823C1098.95 101.556 1097.31 103.218 1094.78 103.218C1094.09 103.218 1091.84 103.059 1091.84 100.996C1091.83 98.5591 1095.52 98.2793 1098.3 98.2793H1098.31Z" fill="#5B5B5B"/>
<path d="M1109.83 92.9726C1111.16 92.9726 1111.23 91.9324 1111.23 91.7253C1111.23 91.106 1110.86 90.4449 1109.83 90.4449H1107.08V87.6836C1107.08 86.4407 1106.27 86 1105.58 86C1105.33 86 1104.06 86.0815 1104.06 87.6836V100.884C1104.06 103.93 1105.56 105.54 1108.4 105.54C1109.06 105.556 1109.71 105.437 1110.32 105.192C1110.86 104.923 1111.17 104.483 1111.17 103.982C1111.18 103.821 1111.15 103.66 1111.09 103.51C1111.03 103.359 1110.94 103.223 1110.82 103.108C1110.71 102.994 1110.57 102.905 1110.42 102.845C1110.27 102.786 1110.11 102.758 1109.95 102.764C1109.77 102.773 1109.58 102.804 1109.41 102.859C1109.2 102.917 1108.99 102.948 1108.77 102.951C1107.62 102.951 1107.08 102.195 1107.08 100.573V92.9726H1109.83Z" fill="#5B5B5B"/>
<path d="M1119.93 90.0486C1115.3 90.0486 1111.95 93.3233 1111.95 97.8366C1111.94 98.8814 1112.13 99.9188 1112.52 100.887C1112.92 101.855 1113.5 102.734 1114.24 103.472C1115.77 104.923 1117.82 105.714 1119.93 105.675C1124.49 105.675 1127.93 102.301 1127.93 97.8278C1127.93 93.3145 1124.56 90.042 1119.93 90.042V90.0486ZM1119.93 103.095C1116.76 103.095 1115.1 100.45 1115.1 97.8344C1115.1 94.2445 1117.6 92.6071 1119.93 92.6071C1122.25 92.6071 1124.75 94.2445 1124.75 97.8344C1124.75 101.424 1122.24 103.095 1119.93 103.095Z" fill="#5B5B5B"/>
<path d="M1594.14 114.835C1593.98 114.972 1593.78 115.062 1593.57 115.095C1593.36 115.127 1593.14 115.102 1592.94 115.02C1592.47 114.816 1592.47 114.418 1592.47 114.033C1592.47 112.179 1592.47 110.324 1592.47 108.468C1592.47 106.953 1591.72 106.081 1590.36 105.994C1588.65 105.886 1587.36 106.754 1587.06 108.179C1586.86 109.172 1586.97 110.171 1586.95 111.165C1586.93 112.202 1586.95 113.24 1586.95 114.277C1586.95 114.781 1586.71 115.088 1586.11 115.098C1585.52 115.107 1585.24 114.781 1585.24 114.296C1585.23 111.264 1585.23 108.232 1585.24 105.199C1585.24 104.73 1585.52 104.432 1586.07 104.43C1586.62 104.427 1586.95 104.702 1586.95 105.22V105.619C1587.17 105.722 1587.23 105.574 1587.31 105.501C1589.54 103.59 1592.94 104.23 1594.03 106.772C1594.07 106.866 1594.11 106.958 1594.16 107.049L1594.14 114.835Z" fill="#5B5B5B"/>
<path d="M1566.21 119.268C1565.77 118.9 1565.76 118.473 1565.96 118.004C1566.37 117.066 1566.76 116.095 1567.19 115.15C1567.28 114.963 1567.33 114.758 1567.34 114.549C1567.34 114.34 1567.29 114.133 1567.21 113.944C1566.15 111.418 1565.11 108.883 1564.07 106.35C1563.97 106.112 1563.89 105.861 1563.84 105.605C1563.81 105.524 1563.81 105.439 1563.82 105.355C1563.83 105.271 1563.85 105.191 1563.9 105.117C1563.94 105.044 1563.99 104.98 1564.06 104.929C1564.13 104.877 1564.2 104.84 1564.29 104.819C1564.47 104.744 1564.68 104.731 1564.88 104.784C1565.07 104.836 1565.25 104.951 1565.37 105.11C1565.52 105.307 1565.63 105.528 1565.7 105.762C1566.44 107.752 1567.17 109.744 1567.9 111.737C1567.97 111.944 1568.06 112.145 1568.2 112.488C1568.61 111.47 1568.98 110.579 1569.34 109.688C1569.87 108.372 1570.4 107.056 1570.94 105.743C1571 105.571 1571.08 105.404 1571.17 105.246C1571.29 105.04 1571.47 104.883 1571.7 104.804C1571.92 104.725 1572.16 104.728 1572.38 104.814C1572.93 104.993 1572.96 105.396 1572.8 105.811C1572.21 107.298 1571.6 108.78 1571 110.267C1569.92 112.894 1568.84 115.518 1567.78 118.149C1567.63 118.583 1567.37 118.969 1567.03 119.27L1566.21 119.268Z" fill="#5B5B5B"/>
<path d="M1518.57 105.874C1518.57 104.77 1518.57 103.794 1518.57 102.826C1518.57 102.506 1518.6 102.186 1518.66 101.871C1518.72 101.505 1519.02 101.32 1519.42 101.306C1519.83 101.292 1520.18 101.465 1520.28 101.852C1520.33 102.046 1520.35 102.244 1520.35 102.443C1520.35 106.394 1520.35 110.346 1520.35 114.298C1520.36 114.478 1520.34 114.658 1520.3 114.833C1520.2 115.199 1519.9 115.349 1519.49 115.351C1519.08 115.354 1518.77 115.236 1518.66 114.868C1518.6 114.678 1518.56 114.484 1518.5 114.235C1518.18 114.471 1517.84 114.69 1517.49 114.889C1515.62 115.844 1513.01 115.384 1511.68 113.881C1509.71 111.627 1509.88 107.758 1512.05 105.642C1512.79 104.939 1513.75 104.512 1514.78 104.432C1515.8 104.352 1516.81 104.625 1517.66 105.204C1517.93 105.382 1518.18 105.584 1518.57 105.874ZM1518.67 109.939C1518.71 109.368 1518.64 108.795 1518.44 108.259C1518.24 107.722 1517.93 107.235 1517.52 106.831C1516.2 105.523 1514 105.659 1513.01 107.157C1511.85 108.876 1511.79 110.701 1512.81 112.471C1513.83 114.242 1516.47 114.364 1517.79 112.706C1518.41 111.923 1518.73 110.938 1518.67 109.939Z" fill="#5B5B5B"/>
<path d="M1549.96 114.214C1548.79 115.204 1547.4 115.41 1545.92 115.281C1544.32 115.143 1543.16 114.373 1542.53 113.135C1541.29 110.708 1541.43 108.29 1543.16 106.074C1544.75 104.026 1547.61 103.836 1549.68 105.53C1549.74 105.584 1549.81 105.633 1549.91 105.71C1550.12 105.495 1550.01 105.241 1550.08 105.025C1550.12 104.821 1550.23 104.64 1550.4 104.519C1550.57 104.398 1550.78 104.346 1550.98 104.373C1551.08 104.365 1551.18 104.377 1551.27 104.408C1551.36 104.44 1551.45 104.491 1551.52 104.557C1551.59 104.623 1551.65 104.703 1551.69 104.793C1551.73 104.883 1551.75 104.979 1551.75 105.077C1551.78 105.294 1551.8 105.512 1551.81 105.731C1551.81 108.567 1551.81 111.402 1551.81 114.235C1551.81 115.068 1551.39 115.387 1550.64 115.213C1550.08 115.084 1550.15 114.638 1549.96 114.214ZM1543.65 110.018C1543.58 111.009 1543.84 111.994 1544.4 112.816C1544.64 113.171 1544.96 113.466 1545.34 113.679C1545.71 113.892 1546.13 114.017 1546.56 114.045C1546.99 114.074 1547.42 114.005 1547.82 113.843C1548.22 113.681 1548.58 113.431 1548.87 113.112C1549.45 112.503 1549.83 111.724 1549.95 110.886C1550.15 109.425 1550.05 107.999 1548.87 106.824C1548.56 106.508 1548.19 106.265 1547.77 106.114C1547.36 105.964 1546.92 105.909 1546.48 105.954C1546.04 105.999 1545.61 106.143 1545.24 106.375C1544.86 106.607 1544.55 106.921 1544.31 107.293C1543.81 108.111 1543.58 109.063 1543.65 110.018Z" fill="#5B5B5B"/>
<path d="M1527.78 110.645C1526.73 110.645 1525.66 110.661 1524.63 110.645C1524.04 110.631 1523.85 110.837 1523.96 111.33C1524.43 113.581 1527.2 114.646 1529.4 113.414C1529.78 113.201 1530.14 112.945 1530.51 112.711C1530.93 112.453 1531.35 112.354 1531.73 112.739C1532.11 113.124 1531.96 113.461 1531.63 113.801C1530.38 115.023 1528.76 115.443 1526.99 115.281C1524.11 115.033 1522.22 113.246 1521.97 110.626C1521.8 108.928 1522.1 107.322 1523.37 105.936C1524.7 104.512 1526.42 104.116 1528.41 104.503C1530.28 104.873 1531.36 105.99 1531.84 107.582C1532.03 108.279 1532.08 109.007 1531.99 109.723C1531.91 110.441 1531.68 110.617 1530.85 110.626C1529.82 110.626 1528.8 110.626 1527.77 110.626L1527.78 110.645ZM1527.03 109.066C1527.94 109.066 1528.85 109.066 1529.76 109.066C1530.19 109.066 1530.32 108.905 1530.29 108.55C1530.15 106.972 1528.81 105.832 1527.09 105.846C1525.36 105.861 1524.04 107.019 1523.91 108.588C1523.88 108.975 1524.02 109.078 1524.43 109.071C1525.29 109.057 1526.16 109.081 1527.02 109.066H1527.03Z" fill="#5B5B5B"/>
<path d="M1508.87 110.018C1508.83 111.353 1508.47 112.647 1507.47 113.771C1505.58 115.851 1501.78 115.881 1499.96 113.747C1498.14 111.613 1498.07 109.291 1499.26 106.946C1500.09 105.286 1501.65 104.385 1503.75 104.409C1505.9 104.434 1507.32 105.478 1508.21 107.122C1508.66 108.018 1508.89 109.013 1508.87 110.018ZM1500.47 109.521C1500.47 111.053 1500.8 112.131 1501.48 112.931C1501.76 113.271 1502.12 113.542 1502.52 113.725C1502.92 113.908 1503.36 113.998 1503.81 113.989C1504.25 113.979 1504.68 113.87 1505.08 113.669C1505.47 113.469 1505.82 113.182 1506.08 112.83C1507.34 111.189 1507.15 108.201 1505.71 106.679C1505.42 106.376 1505.08 106.137 1504.69 105.98C1504.31 105.823 1503.89 105.75 1503.48 105.767C1503.06 105.784 1502.66 105.89 1502.29 106.078C1501.92 106.266 1501.59 106.532 1501.33 106.857C1500.74 107.615 1500.43 108.562 1500.47 109.526V109.521Z" fill="#5B5B5B"/>
<path d="M1573.43 109.289C1573.5 108.094 1573.97 106.957 1574.76 106.062C1576.73 103.799 1580.55 103.843 1582.45 106.149C1584.17 108.229 1584.24 111.416 1582.61 113.487C1580.61 116.034 1576.27 115.912 1574.45 113.252C1573.75 112.225 1573.43 111.141 1573.43 109.289ZM1581.82 110.253C1581.82 108.845 1581.55 107.907 1580.95 107.077C1579.64 105.285 1577.08 105.328 1576.02 107.241C1574.97 109.155 1575.08 111.132 1576.42 112.94C1577.49 114.387 1579.8 114.347 1580.93 112.94C1581.55 112.185 1581.86 111.227 1581.82 110.253Z" fill="#5B5B5B"/>
<path d="M1555.18 105.684C1555.71 105.156 1556.37 104.772 1557.09 104.567C1557.81 104.361 1558.58 104.343 1559.31 104.512C1560.96 104.835 1562.17 106.083 1562.28 107.56C1562.45 109.692 1562.33 111.826 1562.35 113.961C1562.35 114.181 1562.32 114.401 1562.26 114.612C1562.17 114.95 1561.88 115.082 1561.5 115.1C1561.34 115.123 1561.17 115.094 1561.02 115.016C1560.88 114.939 1560.76 114.817 1560.68 114.669C1560.59 114.424 1560.55 114.162 1560.58 113.902C1560.58 112.087 1560.58 110.272 1560.58 108.456C1560.58 106.901 1559.82 106.057 1558.39 105.989C1556.67 105.907 1555.27 106.859 1555.17 108.309C1555.07 109.859 1555.13 111.418 1555.11 112.973C1555.11 113.47 1555.08 113.97 1555.04 114.465C1555 114.896 1554.69 115.096 1554.21 115.1C1553.73 115.105 1553.44 114.866 1553.36 114.467C1553.33 114.27 1553.32 114.069 1553.32 113.869C1553.32 111.119 1553.32 108.366 1553.32 105.612C1553.32 105.412 1553.33 105.213 1553.36 105.016C1553.44 104.624 1553.74 104.427 1554.17 104.42C1554.61 104.413 1554.93 104.58 1555.02 104.976C1555.07 105.171 1555.11 105.363 1555.18 105.684Z" fill="#5B5B5B"/>
<path d="M1538.88 115.342C1535.98 115.328 1533.89 113.752 1533.38 111.235C1532.93 109.057 1533.38 107.056 1535.31 105.468C1536.74 104.284 1539.15 104.061 1540.85 104.922C1541.25 105.119 1541.56 105.37 1541.58 105.799C1541.6 106.388 1540.94 106.737 1540.27 106.503C1539.8 106.339 1539.4 106.067 1538.88 106.017C1537.78 105.905 1536.83 106.203 1536.17 106.993C1534.85 108.578 1534.67 110.311 1535.57 112.084C1536.27 113.473 1537.68 113.982 1539.37 113.592C1539.7 113.515 1540.02 113.43 1540.35 113.344C1540.79 113.229 1541.2 113.25 1541.42 113.632C1541.65 114.014 1541.5 114.42 1541.12 114.704C1540.42 115.229 1539.56 115.321 1538.88 115.342Z" fill="#5B5B5B"/>
<path d="M1491.89 109.96C1491.84 110.876 1492.11 111.783 1492.67 112.514C1493.46 113.522 1494.64 113.921 1496.01 113.632C1496.41 113.548 1496.8 113.44 1497.18 113.337C1497.56 113.234 1497.98 113.243 1498.21 113.572C1498.45 113.9 1498.36 114.313 1498.04 114.617C1497.66 114.937 1497.21 115.143 1496.72 115.211C1494.16 115.701 1491.8 114.742 1490.74 112.631C1489.53 110.211 1489.77 107.873 1491.74 105.792C1493.09 104.367 1495.69 103.968 1497.55 104.84C1497.77 104.94 1497.97 105.07 1498.15 105.227C1498.47 105.516 1498.54 105.863 1498.27 106.208C1498.15 106.381 1497.96 106.504 1497.76 106.557C1497.55 106.609 1497.33 106.587 1497.14 106.494C1496.67 106.313 1496.22 106.041 1495.68 105.992C1495.1 105.915 1494.51 106.004 1493.97 106.249C1493.44 106.493 1492.98 106.882 1492.65 107.373C1492.11 108.123 1491.84 109.036 1491.89 109.96Z" fill="#5B5B5B"/>
<path d="M1536.92 72C1538.97 72.7067 1541 73.4401 1543.25 73.3521C1545.69 73.2561 1548.15 73.3281 1550.59 73.3308C1552.18 73.3308 1552.83 73.9789 1552.85 75.5604C1552.86 76.9658 1552.87 78.374 1552.85 79.7821C1552.82 80.0506 1552.87 80.3219 1553 80.56C1553.13 80.7982 1553.32 80.9919 1553.56 81.1156C1554.54 81.6998 1555.39 82.4754 1556.06 83.3958C1557.27 85.0413 1557.6 86.7642 1556.65 88.6844C1555.78 90.4152 1555.83 90.4392 1554.58 88.9857C1554.23 88.5724 1553.88 88.159 1553.5 87.7616C1553.37 87.6176 1553.2 87.4416 1552.97 87.5483C1552.74 87.6549 1552.84 87.8683 1552.84 88.0416C1552.84 89.7218 1552.84 91.402 1552.84 93.0795C1552.84 95.0103 1552.23 95.5971 1550.31 95.5971H1533.1C1532.9 95.5971 1532.69 95.5971 1532.49 95.5971C1531.29 95.5304 1530.62 94.8423 1530.62 93.6315C1530.62 90.3645 1530.61 87.0949 1530.62 83.8252C1530.62 83.2251 1530.56 82.7878 1529.82 82.7798C1529.68 82.7798 1529.47 82.7424 1529.44 82.5611C1529.41 82.3797 1529.6 82.2784 1529.73 82.2144C1530.53 81.825 1530.84 81.1316 1530.57 80.3609C1530.26 79.4434 1530.75 78.6167 1530.64 77.7232C1530.54 76.7734 1530.54 75.8168 1530.64 74.867C1530.69 73.9655 1531.47 73.3548 1532.5 73.3415C1533.82 73.3228 1535.13 73.3415 1536.45 73.3415C1536.68 73.3803 1536.92 73.3554 1537.13 73.2695C1537.01 72.7734 1536.47 72.5281 1536.37 72.0187L1536.92 72ZM1532.6 90.1859C1532.26 91.2526 1531.8 92.0954 1531.51 92.9915C1531.02 94.469 1531.46 94.9037 1532.7 94.893C1538.01 94.845 1543.31 94.8717 1548.62 94.8717C1549.25 94.8717 1549.89 94.8717 1550.52 94.8717C1551.05 94.8717 1551.32 94.6717 1551.32 94.1063C1551.33 92.9461 1551.35 91.8047 1550.79 90.7246C1550.47 90.1032 1550.3 89.3911 1550.01 88.767C1549.72 88.143 1549.64 87.5643 1549.97 86.9482C1550.17 86.5775 1550.05 86.3241 1549.68 86.1161C1548.79 85.6065 1547.82 85.2682 1546.81 85.1187C1546.6 85.092 1546.35 85.164 1546.17 84.8093C1547.95 84.5613 1549.5 85.3267 1551.21 85.6894C1550.86 85.324 1550.39 85.284 1550.03 84.7933C1552.46 85.6521 1554.66 86.5135 1555.8 89.1137C1556.33 87.5563 1556.6 86.2415 1555.8 84.9347C1554.99 83.7 1553.91 82.66 1552.65 81.889C1552.31 81.6677 1551.99 81.5903 1551.96 82.1557C1551.94 82.5531 1551.7 82.6464 1551.38 82.6624C1551.12 82.6759 1550.87 82.638 1550.62 82.5509C1550.38 82.4639 1550.16 82.3295 1549.98 82.1557C1550.95 82.1557 1550.95 82.1557 1551.28 81.2836C1551.3 81.1961 1551.34 81.1137 1551.39 81.0409C1551.95 80.4809 1551.66 79.9741 1551.31 79.4594C1550.99 78.9911 1550.61 78.57 1550.17 78.2086C1548.86 77.16 1547.4 76.3125 1545.83 75.6937C1543.38 74.6856 1540.82 73.9735 1538.32 73.1094C1538.23 73.0801 1538.11 72.9948 1538.01 73.1655C1538.39 73.7148 1539 74.1015 1539.4 74.8643L1533.9 73.9282C1534.52 74.5051 1535.18 75.0288 1535.89 75.4937C1536.51 75.9284 1536.51 75.9631 1535.91 76.4645C1535.24 77.0352 1534.56 77.6006 1533.89 78.1793C1533.72 78.326 1533.48 78.446 1533.44 78.7127C1533.69 78.8114 1533.87 78.67 1534.07 78.6567C1534.23 78.6567 1534.41 78.5927 1534.51 78.7554C1534.6 78.918 1534.46 79.0541 1534.36 79.1714C1534.26 79.2887 1534.12 79.4381 1533.99 79.5714C1533.09 80.5454 1532.08 81.4133 1530.98 82.1584C1531.06 82.3584 1531.19 82.3504 1531.29 82.3771C1532.3 82.6438 1532.38 82.6838 1531.89 83.5478C1531.11 84.908 1531.44 86.3481 1531.35 87.8363C1531.62 87.5696 1531.53 87.1936 1531.87 87.0015C1531.82 88.4657 1531.35 89.8472 1531.41 91.338C1531.93 91.0526 1532.07 90.5192 1532.61 90.1859H1532.6Z" fill="#5B5B5B"/>
<path d="M1543.15 82.8225C1542.08 82.8065 1541.35 81.8491 1541.73 80.9557C1541.91 80.5396 1542.16 80.2703 1542.57 80.7423C1542.78 80.9903 1543.01 80.969 1543.3 80.9023C1543.81 80.7876 1544.36 80.7343 1544.67 81.2757C1544.91 81.6971 1544.46 82.4011 1543.87 82.6838C1543.65 82.7882 1543.4 82.8358 1543.15 82.8225Z" fill="#5B5B5B"/>
<path d="M0 1L1920 1.00017" stroke="#F2EEE8"/>
</svg>
