<svg width="165" height="50" viewBox="0 0 165 50" fill="none" xmlns="http://www.w3.org/2000/svg">
<path d="M-0.000488281 6C-0.000488281 2.68629 2.6858 0 5.99951 0H159C162.313 0 165 2.68629 165 6V44C165 47.3137 162.313 50 159 50H5.99952C2.68581 50 -0.000488281 47.3137 -0.000488281 44V6Z" fill="#86371C"/>
<path d="M-0.000488281 6C-0.000488281 2.68629 2.6858 0 5.99951 0H159C162.313 0 165 2.68629 165 6V44C165 47.3137 162.313 50 159 50H5.99952C2.68581 50 -0.000488281 47.3137 -0.000488281 44V6Z" stroke="#D6D6D6"/>
</svg>
