<svg width="202" height="113" viewBox="0 0 202 113" fill="none" xmlns="http://www.w3.org/2000/svg">
<g opacity="0.05">
<path d="M197.701 73.2073C198.641 69.1844 198.764 64.9178 198.314 60.895C195.737 37.977 177.285 13.6775 155.929 4.69719C145.251 0.186741 133.345 -0.625952 121.317 0.389915C103.97 0.796262 86.3373 4.57529 70.1769 9.49209C48.4116 16.1155 28.2419 27.9402 13.6771 45.657C7.33569 53.3775 1.93527 62.114 0.953376 72.232C0.0942188 81.1311 -0.23308 93.6059 5.24916 101.489C5.53555 110.591 7.45843 120.587 13.0634 127.455C19.6912 135.622 28.8555 142.977 38.5108 147.244C62.0354 157.646 91.0013 159.272 116.367 157.24C140.219 155.33 164.152 146.147 182.399 130.502C197.66 117.458 206.742 92.265 197.701 73.2073ZM15.0272 55.8156C27.5873 36.8799 48.1252 23.4704 69.3996 16.1562C72.8771 14.9778 76.4365 13.7994 80.0368 12.7022C90.1012 10.6299 100.207 8.76066 110.435 7.70416C121.031 6.60702 133.059 4.85973 143.614 6.9321C164.152 10.9956 184.281 29.1593 190.704 48.8265C192.791 55.2467 193.691 62.8861 192.3 69.8752C191.155 70.6473 190.5 72.1101 191.277 73.6543C190.704 75.4016 189.927 77.0676 188.986 78.6117C185.754 83.9755 181.131 85.4383 175.199 85.8853C172.458 86.0885 170.821 85.8447 168.571 87.7545C162.68 92.7526 161.043 101.652 156.665 107.828C152.206 114.086 145.742 113.476 139.196 111.241C136.291 110.266 133.796 108.681 130.645 109.738C124.549 111.77 120.867 120.465 116.612 124.61C112.848 128.267 107.734 132.453 102.089 131.112C95.5425 129.568 93.006 123.107 90.3058 117.824C88.4238 114.167 85.7236 108.722 80.7323 109.372C74.5546 110.185 71.8134 118.515 66.9858 121.603C55.6122 128.999 48.5753 118.474 45.6705 108.885C44.0749 103.643 41.4565 100.107 35.4833 100.798C29.7965 101.489 25.6235 104.252 19.6094 102.789C12.7361 101.164 9.7086 96.4503 8.56306 89.8675C6.59927 77.8803 8.23576 66.0149 15.0272 55.8156ZM171.271 130.583C153.515 142.733 132.773 150.332 111.089 150.982C89.8148 151.632 68.4995 151.185 48.0434 144.643C37.1198 141.148 28.3237 135.338 20.1821 127.333C14.2499 121.481 10.8541 113.72 9.01309 105.593C15.3545 110.713 24.0688 111.241 31.8012 108.6C34.706 107.584 37.8562 106.365 39.82 109.169C40.8428 110.672 40.8838 113.07 41.5793 114.777C43.0521 118.515 45.3841 122.497 48.3298 125.26C53.8939 130.462 62.3218 129.933 68.4586 126.114C71.4043 124.285 73.4499 121.684 75.4955 118.921C77.8275 115.792 80.9778 112.379 84.7826 115.752C86.5009 117.255 87.0737 121.481 87.9738 123.594C90.9604 130.624 96.0744 137.044 104.298 137.695C113.38 138.426 121.849 130.543 126.963 123.879C128.436 121.928 129.622 118.962 131.627 117.54C133.959 115.874 134.859 116.89 137.396 117.743C141.978 119.328 147.133 120.791 151.961 119.531C161.084 117.174 164.48 108.885 167.875 101.042C169.43 97.5068 170.944 92.6713 175.158 91.371C176.999 90.8021 179.413 91.2897 181.336 90.8834C185.427 90.03 188.986 87.8764 191.809 84.7882C192.627 83.8942 193.323 82.9596 193.977 81.9844C195.246 89.5018 193.773 97.5068 191.809 104.74C188.863 115.955 180.722 124.123 171.271 130.583Z" fill="#FD9900"/>
<path d="M143.206 54.4341C142.837 47.5668 138.419 45.3725 132.323 43.7471C130.277 43.2189 129.418 46.3478 131.464 46.876C140.669 49.3547 140.751 55.2874 137.437 60.4886C137.028 60.2042 136.537 60.001 135.882 59.9604C128.273 59.7166 124.018 51.3865 116.326 51.9553C113.34 52.1585 110.312 53.7433 107.776 55.1655C102.702 58.0099 100.166 59.5134 93.8244 58.5382C83.5145 56.9534 73.0819 60.6105 67.886 69.5502C67.1905 67.4778 67.3133 65.121 68.7452 62.5204C71.4045 57.7255 77.3368 53.6214 81.7962 50.5738C93.1698 42.8938 106.139 39.2367 119.681 37.53C120.745 37.4081 120.827 35.7421 119.681 35.8234C100.329 36.8392 82.2053 41.7967 67.5997 55.0436C54.6305 66.7464 63.5903 81.7406 79.2187 83.8536C98.2839 86.4542 117.635 82.5126 133.182 71.0536C138.623 67.0714 143.574 61.667 143.206 54.4341ZM130.768 67.1121C125.286 70.6879 119.231 73.3292 113.053 75.239C102.375 78.5711 89.6923 79.9933 78.6051 77.5958C75.2912 76.8644 71.8955 75.1984 69.7271 72.8009C73.3274 68.5749 77.9914 64.3896 83.3918 62.9673C89.9378 61.2201 96.1973 65.4461 102.702 63.9019C104.748 63.4143 106.098 62.5204 107.857 61.4232C113.544 57.9286 117.226 55.9782 123.936 59.7978C128.027 62.114 129.377 64.8365 133.387 65.121C132.527 65.8524 131.668 66.5026 130.768 67.1121Z" fill="#FD9900"/>
</g>
</svg>
