<svg width="203" height="39" viewBox="0 0 203 39" fill="none" xmlns="http://www.w3.org/2000/svg">
<path d="M195.458 17.7863C196.207 17.8637 196.956 18.0445 197.705 18.3286C198.479 18.5868 199.177 18.9484 199.796 19.4132C200.416 19.8781 200.92 20.4462 201.307 21.1177C201.695 21.7633 201.888 22.5123 201.888 23.3645C201.811 24.5008 201.475 25.3659 200.881 25.9599C200.313 26.5539 199.616 27.0187 198.789 27.3545C197.989 27.6644 197.136 27.9097 196.233 28.0905C195.355 28.2454 194.58 28.452 193.908 28.7103C192.746 29.1493 191.971 29.7175 191.584 30.4147C191.326 30.9054 191.326 31.4219 191.584 31.9643C191.868 32.5066 192.294 33.0102 192.862 33.475C193.456 33.9399 194.154 34.3273 194.954 34.6372C195.755 34.9212 196.581 35.0633 197.433 35.0633C198.182 35.0633 198.905 34.9341 199.603 34.6759C200.3 34.3918 200.907 33.9141 201.423 33.2426C201.553 33.036 201.72 32.9327 201.927 32.9327C202.056 32.9327 202.172 32.9843 202.276 33.0876C202.405 33.1909 202.469 33.3201 202.469 33.475C202.444 33.6042 202.392 33.7204 202.314 33.8237C202.263 33.9011 202.211 33.9915 202.159 34.0948C201.126 35.5669 199.926 36.6257 198.557 37.2713C197.214 37.9169 195.845 38.2398 194.451 38.2398C192.72 38.2139 191.222 37.8911 189.957 37.2713C188.717 36.6257 187.697 35.7993 186.897 34.7921C186.096 33.7849 185.515 32.6486 185.154 31.3832C184.818 30.0919 184.676 28.7878 184.727 27.4707C184.805 26.1536 185.089 24.8882 185.58 23.6744C186.096 22.4348 186.793 21.3501 187.672 20.4204C188.575 19.4907 189.673 18.7805 190.964 18.2898C192.281 17.7992 193.779 17.6313 195.458 17.7863ZM190.422 29.1364C190.525 29.6013 190.719 29.6529 191.003 29.2914C191.339 28.8265 191.752 28.4262 192.243 28.0905C192.759 27.7548 193.276 27.4319 193.792 27.122C194.334 26.7863 194.864 26.4506 195.38 26.1149C195.923 25.7791 196.388 25.3918 196.775 24.9527C197.162 24.5137 197.459 23.9972 197.666 23.4032C197.872 22.7834 197.937 22.0474 197.86 21.1952C197.705 20.3946 197.356 19.8135 196.814 19.452C196.297 19.0646 195.703 18.8709 195.032 18.8709C194.593 18.8709 194.141 18.9484 193.676 19.1033C192.746 19.4391 192.023 19.9943 191.507 20.7691C190.99 21.5438 190.616 22.4219 190.383 23.4032C190.151 24.3588 190.047 25.353 190.073 26.386C190.125 27.3932 190.241 28.31 190.422 29.1364Z" fill="white"/>
<path d="M163.198 18.0188H171.914C172.043 18.0188 172.108 18.0834 172.108 18.2125C172.134 18.3416 172.082 18.4062 171.953 18.4062C171.721 18.4062 171.54 18.4449 171.411 18.5224C171.282 18.6257 171.191 18.7806 171.14 18.9872C171.114 19.168 171.178 19.4521 171.333 19.8395L175.556 30.2212C175.659 30.5053 175.788 30.4665 175.943 30.105L180.165 19.8395C180.32 19.4521 180.372 19.168 180.32 18.9872C180.295 18.7806 180.217 18.6257 180.088 18.5224C179.933 18.4449 179.739 18.4062 179.507 18.4062C179.404 18.4062 179.352 18.3416 179.352 18.2125C179.352 18.0834 179.429 18.0188 179.584 18.0188H183.419C183.523 18.0188 183.574 18.0834 183.574 18.2125C183.574 18.3416 183.51 18.4062 183.381 18.4062C183.277 18.4062 183.135 18.4191 182.955 18.4449C182.8 18.4707 182.593 18.5999 182.335 18.8323C182.102 19.0389 181.831 19.3746 181.521 19.8395C181.237 20.2785 180.914 20.9241 180.553 21.7764L174.122 37.5039C174.071 37.6072 173.98 37.7234 173.851 37.8525C173.722 37.9558 173.541 38.0075 173.309 38.0075C172.922 38.0075 172.663 37.8267 172.534 37.4651L166.065 21.7764C165.729 20.9241 165.406 20.2785 165.096 19.8395C164.787 19.3746 164.503 19.0389 164.244 18.8323C164.012 18.5999 163.805 18.4707 163.624 18.4449C163.47 18.4191 163.34 18.4062 163.237 18.4062C163.108 18.4062 163.043 18.3416 163.043 18.2125C163.043 18.0834 163.095 18.0188 163.198 18.0188Z" fill="white"/>
<path d="M149.438 20.924L156.837 17.9025C157.018 17.8508 157.108 17.9154 157.108 18.0962L157.147 34.2498C157.147 35.5152 157.65 36.5353 158.658 37.3101L159.084 37.62C159.161 37.6716 159.187 37.7491 159.161 37.8524C159.135 37.9557 159.071 38.0074 158.967 38.0074H149.787C149.657 38.0074 149.58 37.9557 149.554 37.8524C149.528 37.7491 149.554 37.6716 149.632 37.62L150.058 37.3488C150.548 36.9873 150.923 36.5353 151.181 35.993C151.465 35.4248 151.607 34.8438 151.607 34.2498L151.569 24.7203C151.569 23.9714 151.375 23.287 150.987 22.6672C150.6 22.0474 150.071 21.5826 149.399 21.2727C149.348 21.221 149.322 21.1565 149.322 21.079C149.348 21.0015 149.386 20.9499 149.438 20.924ZM150.91 13.0215C150.91 12.221 151.194 11.5366 151.762 10.9684C152.33 10.4003 153.015 10.1162 153.815 10.1162C154.642 10.1162 155.339 10.4003 155.907 10.9684C156.475 11.5366 156.759 12.221 156.759 13.0215C156.759 13.8479 156.475 14.5452 155.907 15.1134C155.339 15.6815 154.655 15.9656 153.854 15.9656C153.028 15.9656 152.33 15.6815 151.762 15.1134C151.194 14.5452 150.91 13.8479 150.91 13.0215Z" fill="white"/>
<path d="M134.942 10.0388L142.341 7.01722C142.521 6.96557 142.612 7.03013 142.612 7.21091V34.2498C142.612 34.8438 142.741 35.412 142.999 35.9543C143.283 36.4966 143.671 36.9486 144.161 37.3101L144.587 37.62C144.665 37.6717 144.691 37.7491 144.665 37.8524C144.639 37.9557 144.562 38.0074 144.432 38.0074H135.29C135.161 38.0074 135.084 37.9557 135.058 37.8524C135.032 37.7491 135.058 37.6717 135.135 37.62L135.561 37.3489C136.052 36.9873 136.427 36.5354 136.685 35.993C136.943 35.4249 137.072 34.8438 137.072 34.2498V13.8351C137.072 13.0861 136.879 12.4018 136.491 11.782C136.104 11.1622 135.574 10.6973 134.903 10.3874C134.851 10.3357 134.825 10.2712 134.825 10.1937C134.851 10.1162 134.89 10.0646 134.942 10.0388Z" fill="white"/>
<path d="M108.983 10.0388L116.382 7.01722C116.563 6.96557 116.653 7.03013 116.653 7.21091V26.696C116.653 26.9026 116.717 27.0704 116.847 27.1996C116.976 27.3029 117.131 27.3545 117.311 27.3545C117.441 27.3545 117.596 27.29 117.776 27.1608L125.408 19.8007C125.692 19.5166 125.847 19.2842 125.872 19.1034C125.924 18.8968 125.898 18.7289 125.795 18.5998C125.718 18.4707 125.563 18.3674 125.33 18.2899C125.253 18.2124 125.227 18.1349 125.253 18.0575C125.279 17.9542 125.343 17.9025 125.446 17.9025H129.746C129.85 17.9025 129.914 17.9542 129.94 18.0575C129.966 18.1349 129.94 18.2124 129.862 18.2899C129.578 18.3157 129.281 18.3932 128.972 18.5223C128.687 18.6256 128.365 18.7806 128.003 18.9872C127.667 19.1679 127.319 19.4391 126.957 19.8007L121.495 25.1077C121.237 25.366 121.211 25.6501 121.418 25.96L128.662 36.1867C128.946 36.5483 129.217 36.8323 129.475 37.0389C129.759 37.2197 130.005 37.3618 130.211 37.4651C130.444 37.5684 130.663 37.62 130.87 37.62C130.947 37.6717 130.96 37.7491 130.908 37.8524C130.883 37.9557 130.818 38.0074 130.715 38.0074H122.425C122.322 38.0074 122.257 37.9557 122.231 37.8524C122.205 37.7491 122.231 37.6717 122.309 37.62C122.619 37.5684 122.864 37.478 123.045 37.3489C123.174 37.2197 123.264 37.0648 123.316 36.884C123.367 36.6774 123.277 36.4062 123.045 36.0705L118.202 29.2527C118.073 29.0977 117.905 29.0202 117.699 29.0202C117.518 28.9944 117.363 29.0461 117.234 29.1752L116.885 29.4851C116.73 29.64 116.653 29.8079 116.653 29.9887V34.2498C116.653 34.8438 116.782 35.412 117.04 35.9543C117.324 36.4966 117.712 36.9486 118.202 37.3101L118.629 37.62C118.706 37.6717 118.732 37.7491 118.706 37.8524C118.68 37.9557 118.603 38.0074 118.474 38.0074H109.331C109.202 38.0074 109.125 37.9557 109.099 37.8524C109.073 37.7491 109.099 37.6717 109.177 37.62L109.603 37.3489C110.093 36.9873 110.468 36.5354 110.726 35.993C110.984 35.4249 111.113 34.8438 111.113 34.2498V13.8351C111.113 13.0861 110.92 12.4018 110.532 11.782C110.145 11.1622 109.616 10.6973 108.944 10.3874C108.892 10.3357 108.867 10.2712 108.867 10.1937C108.892 10.1162 108.931 10.0646 108.983 10.0388Z" fill="white"/>
<path d="M96.8857 17.7477C97.7896 17.7477 98.6677 17.9026 99.5199 18.2125C100.398 18.4966 101.186 18.9356 101.883 19.5296C102.58 20.0978 103.148 20.795 103.587 21.6215C104.026 22.422 104.259 23.3388 104.285 24.3718C104.285 24.501 104.246 24.5268 104.168 24.4493L99.5199 22.8611C99.4941 22.8352 99.4812 22.7965 99.4812 22.7448C99.6619 22.3575 99.7652 21.9443 99.7911 21.5052C99.8169 21.0404 99.7394 20.6272 99.5586 20.2656C99.4037 19.8783 99.1325 19.5554 98.7451 19.2972C98.3836 19.0389 97.88 18.9098 97.2344 18.9098C96.253 18.9098 95.4008 19.323 94.6777 20.1494C93.9804 20.95 93.451 21.9572 93.0894 23.171C92.7279 24.3847 92.56 25.7018 92.5858 27.1222C92.6117 28.5168 92.857 29.8209 93.3219 31.0347C93.8125 32.2485 94.5486 33.2557 95.5299 34.0563C96.5113 34.8568 97.7767 35.2571 99.3262 35.2571C100.282 35.2571 101.186 35.0893 102.038 34.7535C102.89 34.4178 103.549 33.9659 104.013 33.3977C104.168 33.2169 104.323 33.1266 104.478 33.1266C104.685 33.1266 104.84 33.2169 104.943 33.3977C105.046 33.5785 105.008 33.798 104.827 34.0563C103.768 35.5283 102.567 36.5871 101.224 37.2328C99.8814 37.8784 98.5127 38.2012 97.1181 38.2012C95.8785 38.2012 94.6648 37.9688 93.4768 37.5039C92.3147 37.0132 91.2817 36.3418 90.3778 35.4896C89.4739 34.6373 88.7379 33.6172 88.1697 32.4293C87.6016 31.2413 87.2917 29.9371 87.24 28.5168C87.2142 27.1222 87.4208 25.7793 87.8598 24.488C88.2989 23.1968 88.9316 22.0605 89.758 21.0791C90.6102 20.0978 91.6432 19.3101 92.857 18.7161C94.0708 18.0963 95.4137 17.7735 96.8857 17.7477Z" fill="white"/>
<path d="M65.6317 28.0132C65.6317 26.5928 65.8771 25.2628 66.3677 24.0232C66.8584 22.7578 67.517 21.6602 68.3434 20.7305C69.1698 19.8008 70.1511 19.0777 71.2874 18.5612C72.4237 18.0188 73.6246 17.7477 74.89 17.7477C76.1813 17.7477 77.3822 18.0188 78.4926 18.5612C79.6289 19.0777 80.6103 19.8008 81.4367 20.7305C82.2631 21.6602 82.9216 22.7578 83.4123 24.0232C83.903 25.2628 84.1483 26.5928 84.1483 28.0132C84.1483 29.4336 83.903 30.7636 83.4123 32.0032C82.9216 33.2428 82.2631 34.3274 81.4367 35.2571C80.6103 36.1868 79.6289 36.9228 78.4926 37.4652C77.3822 38.0075 76.1813 38.2787 74.89 38.2787C73.6246 38.2787 72.4237 38.0075 71.2874 37.4652C70.1511 36.9228 69.1698 36.1868 68.3434 35.2571C67.517 34.3274 66.8584 33.2428 66.3677 32.0032C65.8771 30.7636 65.6317 29.4336 65.6317 28.0132ZM71.1712 28.0132C71.1712 29.2786 71.2358 30.4666 71.3649 31.577C71.494 32.6875 71.7006 33.6689 71.9847 34.5211C72.2946 35.3475 72.682 36.0061 73.1468 36.4967C73.6375 36.9616 74.2186 37.194 74.89 37.194C75.5615 37.194 76.1296 36.9616 76.5945 36.4967C77.0852 36.0061 77.4725 35.3475 77.7566 34.5211C78.0665 33.6689 78.286 32.6875 78.4152 31.577C78.5443 30.4666 78.6088 29.2786 78.6088 28.0132C78.6088 26.7477 78.5443 25.5598 78.4152 24.4493C78.286 23.3388 78.0665 22.3704 77.7566 21.544C77.4725 20.6917 77.0852 20.0332 76.5945 19.5684C76.1296 19.0777 75.5615 18.8323 74.89 18.8323C74.2186 18.8323 73.6375 19.0777 73.1468 19.5684C72.682 20.0332 72.2946 20.6788 71.9847 21.5052C71.7006 22.3316 71.494 23.313 71.3649 24.4493C71.2358 25.5598 71.1712 26.7477 71.1712 28.0132Z" fill="white"/>
<path d="M52.4045 10.0388L59.8034 7.01722C59.9842 6.96557 60.0746 7.03013 60.0746 7.21091V34.2498C60.0746 34.8438 60.2037 35.412 60.462 35.9543C60.7461 36.4966 61.1334 36.9486 61.6241 37.3101L62.0502 37.62C62.1277 37.6717 62.1535 37.7491 62.1277 37.8524C62.1019 37.9557 62.0244 38.0074 61.8953 38.0074H52.7532C52.6241 38.0074 52.5466 37.9557 52.5208 37.8524C52.4949 37.7491 52.5208 37.6717 52.5982 37.62L53.0243 37.3489C53.515 36.9873 53.8895 36.5354 54.1477 35.993C54.406 35.4249 54.5351 34.8438 54.5351 34.2498V13.8351C54.5351 13.0861 54.3414 12.4018 53.9541 11.782C53.5667 11.1622 53.0373 10.6973 52.3658 10.3874C52.3142 10.3357 52.2883 10.2712 52.2883 10.1937C52.3142 10.1162 52.3529 10.0646 52.4045 10.0388Z" fill="white"/>
<path d="M27.0389 23.7907C27.0389 23.7133 27.0002 23.5712 26.9227 23.3646C26.8452 23.158 26.7161 22.9256 26.5353 22.6673C26.3804 22.4091 26.1738 22.1637 25.9155 21.9313C25.6573 21.6731 25.3474 21.4535 24.9858 21.2728C24.9342 21.2211 24.9083 21.1566 24.9083 21.0791C24.9342 21.0016 24.9729 20.95 25.0246 20.9241L32.4235 17.9026C32.6042 17.8509 32.6946 17.9155 32.6946 18.0963C32.6946 18.3804 32.6946 18.6773 32.6946 18.9872C32.7205 19.2971 32.7334 19.5941 32.7334 19.8782C32.2169 20.1623 31.6229 20.5238 30.9514 20.9629C30.3058 21.3761 29.5569 21.8926 28.7046 22.5124C28.4464 22.6932 28.1752 22.8998 27.8912 23.1322C27.6071 23.3646 27.323 23.5841 27.0389 23.7907ZM34.6703 37.6201C34.7477 37.6717 34.7736 37.7492 34.7477 37.8525C34.7219 37.9558 34.6444 38.0075 34.5153 38.0075H25.3732C25.2441 38.0075 25.1666 37.9558 25.1408 37.8525C25.115 37.7492 25.1408 37.6717 25.2183 37.6201L25.6444 37.3489C26.6515 36.5742 27.1551 35.5412 27.1551 34.2499V26.7348C27.6716 26.3216 28.1752 25.9342 28.6659 25.5727C29.1824 25.1853 29.6731 24.8237 30.1379 24.488C30.7319 24.049 31.2484 23.7003 31.6875 23.4421C32.1265 23.158 32.5268 22.9127 32.8883 22.7061C32.7592 23.0418 32.6946 23.3775 32.6946 23.7133C32.6946 25.4952 32.6946 27.2513 32.6946 28.9816C32.7205 30.7119 32.7205 32.468 32.6946 34.2499C32.6946 34.8439 32.8238 35.412 33.082 35.9544C33.3661 36.4967 33.7535 36.9486 34.2441 37.3102L34.6703 37.6201ZM15.1464 24.7204C15.1464 23.9715 14.9528 23.2871 14.5654 22.6673C14.178 22.0475 13.6486 21.5827 12.9771 21.2728C12.9255 21.2211 12.8997 21.1566 12.8997 21.0791C12.9255 21.0016 12.9642 20.95 13.0159 20.9241L20.4148 17.9026C20.5956 17.8509 20.6859 17.9155 20.6859 18.0963V28.7492C19.6271 29.5756 18.5941 30.3891 17.5869 31.1896C16.6056 31.9902 15.7017 32.6875 14.8753 33.2815C15.0044 32.9457 15.0948 32.5196 15.1464 32.0031C15.1981 31.6157 15.1981 31.2413 15.1464 30.8797V24.7204ZM20.7634 31.8482C20.8667 32.4421 21.0991 32.9845 21.4607 33.4752C21.8481 33.9658 22.3258 34.3532 22.894 34.6373C22.9456 34.6889 22.9586 34.7535 22.9327 34.831C22.9327 34.9084 22.894 34.9601 22.8165 34.9859L15.4563 38.0075C15.2497 38.0591 15.1464 37.9946 15.1464 37.8138V36.4967V36.2643C15.8179 35.7736 16.5797 35.1796 17.432 34.4823C18.31 33.7851 19.2785 33.0103 20.3373 32.1581C20.4148 32.1064 20.4793 32.0548 20.531 32.0031C20.6085 31.9515 20.6859 31.8998 20.7634 31.8482ZM45.633 34.2499C45.633 35.5153 46.1366 36.5354 47.1438 37.3102L47.5699 37.6201C47.6474 37.6717 47.6732 37.7492 47.6474 37.8525C47.6216 37.9558 47.557 38.0075 47.4537 38.0075H38.2729C38.1696 38.0075 38.105 37.9558 38.0792 37.8525C38.0533 37.7492 38.0792 37.6717 38.1567 37.6201L38.544 37.3489C39.0347 36.9874 39.4092 36.5354 39.6674 35.9931C39.9515 35.4508 40.0935 34.8697 40.0935 34.2499V23.6745C40.0935 22.4866 39.8353 21.6731 39.3188 21.234C38.8023 20.7692 38.1308 20.5626 37.3044 20.6142C36.5038 20.6401 35.6 20.8596 34.5928 21.2728C33.6114 21.686 32.643 22.1767 31.6875 22.7448C30.7319 23.2871 29.841 23.8424 29.0145 24.4105C28.214 24.9787 27.5942 25.4306 27.1551 25.7664C26.0705 26.5928 24.9858 27.445 23.9012 28.323C22.8423 29.1753 21.7706 30.0275 20.6859 30.8797C20.1178 31.3446 19.498 31.874 18.8265 32.468C18.1551 33.0361 17.4578 33.6043 16.7347 34.1724C16.0116 34.7406 15.2885 35.2829 14.5654 35.7994C13.8681 36.2901 13.1837 36.7033 12.5123 37.039C11.4276 37.5814 10.2784 37.9429 9.06463 38.1237C7.87667 38.3045 6.7791 38.2141 5.77192 37.8525C4.76474 37.491 3.92542 36.8195 3.25397 35.8382C2.60834 34.831 2.28553 33.4106 2.28553 31.577L2.24679 24.7204C2.24679 23.9715 2.0531 23.2871 1.66572 22.6673C1.27834 22.0475 0.748929 21.5827 0.0774754 21.2728C0.0258251 21.2211 0 21.1566 0 21.0791C0.0258252 21.0016 0.0645629 20.95 0.116213 20.9241L7.51512 17.9026C7.69589 17.8509 7.78628 17.9155 7.78628 18.0963L7.82502 31.577C7.82502 32.3001 7.95414 32.9328 8.2124 33.4752C8.49647 34.0175 8.8322 34.4565 9.21958 34.7922C9.63278 35.128 10.0847 35.3733 10.5754 35.5283C11.0919 35.6574 11.5955 35.6832 12.0862 35.6057C12.5768 35.5283 13.2225 35.2442 14.0231 34.7535C14.8495 34.2628 15.6888 33.6947 16.541 33.049C17.3932 32.4034 18.1938 31.7707 18.9427 31.1509C19.7175 30.5311 20.2986 30.0662 20.6859 29.7563C21.7706 28.9041 22.8423 28.0519 23.9012 27.1996C24.9858 26.3216 26.0705 25.4694 27.1551 24.643C27.9815 24.0232 28.9242 23.3388 29.983 22.5899C31.0676 21.8151 32.1781 21.1049 33.3144 20.4593C34.4766 19.7878 35.6387 19.2326 36.8008 18.7936C37.963 18.3287 39.0218 18.0963 39.9773 18.0963C41.3719 18.0963 42.4824 18.4062 43.3088 19.026C44.1352 19.6458 44.7421 20.4722 45.1294 21.5052C45.4652 22.4349 45.633 23.5325 45.633 24.7979V34.2499Z" fill="white"/>
<path d="M69.1785 16.5919C69.4095 16.4924 69.6404 16.4008 69.8793 16.3172C70.831 15.9747 71.7906 15.7557 72.7382 15.6562C73.2638 15.6044 73.7814 15.5766 74.2792 15.5766C76.2223 15.5766 77.9782 15.9827 79.4953 16.779C81.3707 17.7665 82.8837 19.1084 83.9867 20.7648C84.1579 21.0196 84.3172 21.2824 84.4645 21.5492L86.3558 15.5527C86.0134 15.5009 85.6709 15.4292 85.3325 15.3217C84.2136 14.9673 83.2262 14.3382 82.4417 13.4941C81.1835 13.7012 79.9014 13.6096 78.671 13.2194C77.4367 12.8292 76.3337 12.1682 75.4219 11.2803C74.2951 11.5192 73.1245 11.4674 72.0096 11.117C71.6671 11.0095 71.3446 10.8701 71.034 10.7148L69.1785 16.5919Z" fill="white"/>
<path d="M75.1873 1.04694C75.689 1.20621 76.1429 1.44113 76.549 1.73578C78.1457 0.210773 80.4989 -0.418343 82.7526 0.290407C85.0063 0.999158 86.5711 2.87058 87.0011 5.03267C87.4989 5.0247 88.0085 5.09239 88.5102 5.25166C91.0147 6.04403 92.4044 8.7118 91.612 11.2163C90.8196 13.7208 88.1519 15.1105 85.6473 14.3181C84.4608 13.9438 83.5291 13.1435 82.9557 12.1401C81.7174 12.5781 80.3357 12.6418 78.9859 12.2157C77.6361 11.7897 76.5411 10.9456 75.7806 9.87447C74.7374 10.3682 73.515 10.4877 72.3244 10.1134C69.8199 9.32101 68.4303 6.65324 69.2226 4.14872C70.015 1.6442 72.6828 0.254572 75.1873 1.04694Z" fill="white"/>
</svg>
