<svg width="37" height="37" viewBox="0 0 37 37" fill="none" xmlns="http://www.w3.org/2000/svg">
<path opacity="0.25" fill-rule="evenodd" clip-rule="evenodd" d="M18.4995 36C28.1645 36 35.9995 28.165 35.9995 18.5C35.9995 8.83502 28.1645 1 18.4995 1C8.83453 1 0.999512 8.83502 0.999512 18.5C0.999512 28.165 8.83453 36 18.4995 36Z" stroke="white" stroke-width="1.5"/>
<path d="M14.4832 14.9671C15.3025 14.9671 15.9667 14.3029 15.9667 13.4835C15.9667 12.6642 15.3025 12 14.4832 12C13.6638 12 12.9996 12.6642 12.9996 13.4835C12.9996 14.3029 13.6638 14.9671 14.4832 14.9671Z" fill="white"/>
<path d="M15.7194 15.958H13.2468C13.1103 15.958 12.9995 16.0688 12.9995 16.2053V23.623C12.9995 23.7595 13.1103 23.8703 13.2468 23.8703H15.7194C15.8558 23.8703 15.9666 23.7595 15.9666 23.623V16.2053C15.9666 16.0688 15.8558 15.958 15.7194 15.958Z" fill="white"/>
<path d="M23.0871 15.5464C22.0303 15.1844 20.7084 15.5024 19.9157 16.0726C19.8885 15.9662 19.7916 15.8871 19.6764 15.8871H17.2038C17.0673 15.8871 16.9565 15.9979 16.9565 16.1344V23.5521C16.9565 23.6886 17.0673 23.7994 17.2038 23.7994H19.6764C19.8129 23.7994 19.9236 23.6886 19.9236 23.5521V18.2212C20.3232 17.8771 20.838 17.7673 21.2593 17.9463C21.6678 18.1189 21.9017 18.5402 21.9017 19.1015V23.5521C21.9017 23.6886 22.0125 23.7994 22.149 23.7994H24.6216C24.758 23.7994 24.8688 23.6886 24.8688 23.5521V18.6035C24.8406 16.5715 23.8847 15.8194 23.0871 15.5464Z" fill="white"/>
</svg>
