<svg width="37" height="37" viewBox="0 0 37 37" fill="none" xmlns="http://www.w3.org/2000/svg">
<path opacity="0.25" fill-rule="evenodd" clip-rule="evenodd" d="M18.4995 36C28.1645 36 35.9995 28.165 35.9995 18.5C35.9995 8.83502 28.1645 1 18.4995 1C8.83453 1 0.999512 8.83502 0.999512 18.5C0.999512 28.165 8.83453 36 18.4995 36Z" stroke="white" stroke-width="1.5"/>
<path d="M24.2197 15.2647C24.1385 15.1729 24.0076 15.1498 23.9002 15.2064C23.8334 15.2416 23.7078 15.2878 23.5587 15.3334C23.7468 15.0762 23.898 14.7882 23.9648 14.5293C23.9937 14.4177 23.9515 14.3001 23.8596 14.2336C23.7677 14.1677 23.6453 14.1677 23.5534 14.2336C23.4086 14.3375 22.7097 14.6497 22.2678 14.7508C21.2691 13.8511 20.1069 13.7577 18.8987 14.4831C17.9166 15.0729 17.7029 16.2721 17.7446 17.0031C15.4966 16.7805 14.0993 15.5593 13.3127 14.5485C13.2577 14.4776 13.169 14.4403 13.0857 14.4458C12.998 14.4524 12.9189 14.5024 12.8741 14.5799C12.5022 15.2257 12.399 15.9396 12.577 16.6447C12.6742 17.0295 12.8441 17.3686 13.0413 17.6434C12.9467 17.5956 12.8554 17.5357 12.7693 17.4642C12.6902 17.3972 12.5796 17.3845 12.4861 17.429C12.3931 17.4747 12.3338 17.5714 12.3338 17.6775C12.3338 18.8882 13.0702 19.6962 13.7579 20.1183C13.6467 20.1045 13.5308 20.0792 13.4137 20.0424C13.3133 20.0111 13.2043 20.0424 13.1348 20.1238C13.0653 20.2046 13.0488 20.32 13.0921 20.4184C13.4784 21.2972 14.2104 21.9017 15.1161 22.121C14.3253 22.5986 13.2668 22.8328 12.2975 22.7179C12.1719 22.6998 12.0522 22.7817 12.0127 22.9059C11.9732 23.0301 12.025 23.1664 12.1356 23.2301C13.6061 24.0793 14.9355 24.3827 16.0844 24.3827C17.7563 24.3827 19.0468 23.7407 19.8322 23.2038C21.9498 21.7583 23.2697 19.163 23.0858 16.841C23.4252 16.5832 23.9328 16.1072 24.2475 15.5955C24.3127 15.4922 24.3009 15.3559 24.2197 15.2647Z" fill="white"/>
</svg>
