<svg width="13" height="8" viewBox="0 0 13 8" fill="none" xmlns="http://www.w3.org/2000/svg">
<path d="M0.0612735 1.26923C0.14247 1.10648 0.659176 0.627522 0.82649 0.557771C0.991344 0.488021 1.22755 0.488021 1.39241 0.557771C1.49575 0.599621 1.90419 0.976274 3.9095 2.86884L6.30111 5.12876L8.70749 2.85954C11.3698 0.34387 11.1828 0.501971 11.5174 0.501971C11.7634 0.504296 11.8742 0.564747 12.1965 0.869324C12.5311 1.18553 12.6 1.29945 12.6 1.54823C12.6 1.67146 12.5852 1.73888 12.541 1.82723C12.4942 1.92023 11.9258 2.46894 9.57112 4.68933C7.17705 6.94692 6.64066 7.44215 6.55947 7.46773C6.40199 7.51888 6.13626 7.50725 5.99355 7.4468C5.89021 7.40263 5.38581 6.9353 2.99912 4.68003C-0.189698 1.6668 0.00222009 1.86908 0.00222011 1.54823C0.00222011 1.425 0.0169849 1.35758 0.0612735 1.26923Z" fill="#270A05"/>
</svg>
